<?xml version="1.0" standalone="no"?>
<!DOCTYPE svg PUBLIC "-//W3C//DTD SVG 20010904//EN"
 "http://www.w3.org/TR/2001/REC-SVG-20010904/DTD/svg10.dtd">
<svg version="1.0" xmlns="http://www.w3.org/2000/svg"
 width="800.000000pt" height="800.000000pt" viewBox="0 0 800.000000 800.000000"
 preserveAspectRatio="xMidYMid meet">
<metadata>
Created by potrace 1.14, written by Peter Selinger 2001-2017
</metadata>
<g transform="translate(0.000000,800.000000) scale(0.100000,-0.100000)"
fill="#000000" stroke="none">
<path d="M737 7124 c-2 -2 -46 -6 -98 -8 -298 -13 -542 -215 -619 -509 -18
-68 -19 -134 -19 -1167 l-1 -1095 1025 0 1025 0 17 45 c10 25 16 47 14 49 -1
2 1 7 6 10 7 5 29 55 37 86 2 6 9 24 15 40 7 17 26 64 41 105 95 249 121 317
130 335 5 11 34 85 64 165 30 80 60 159 67 175 7 17 13 32 14 35 1 3 5 14 10
25 4 11 16 41 26 67 25 65 61 119 101 153 132 112 325 105 448 -16 37 -37 96
-141 105 -187 4 -23 84 -272 95 -297 5 -11 23 -65 40 -120 17 -55 35 -109 40
-120 4 -11 14 -40 21 -65 7 -25 15 -49 18 -55 3 -5 6 -12 6 -15 1 -3 11 -35
23 -71 12 -36 24 -74 27 -85 2 -10 15 -50 29 -89 15 -38 28 -79 31 -90 2 -11
23 -74 45 -140 23 -66 43 -127 45 -135 2 -8 38 -118 80 -245 42 -126 79 -237
81 -245 10 -40 29 -90 34 -90 3 0 12 17 19 38 8 20 22 55 31 77 15 34 38 90
80 190 4 11 15 36 23 55 15 35 96 234 102 250 2 7 33 78 50 115 37 84 95 225
95 232 0 5 10 26 21 48 12 22 21 40 19 40 -1 0 3 11 9 25 5 14 24 59 41 100
46 111 51 122 67 153 8 15 11 27 7 27 -3 0 -2 6 4 13 6 6 11 15 12 19 1 9 26
72 45 113 7 17 25 59 39 95 49 120 95 172 201 225 30 15 60 20 125 20 72 0 93
-4 140 -27 56 -28 77 -44 117 -92 13 -14 125 -227 249 -474 124 -246 230 -451
235 -457 6 -6 105 -10 252 -11 237 -1 292 -5 332 -27 11 -6 23 -11 26 -12 21
-1 109 -90 133 -134 34 -63 41 -95 39 -182 -2 -140 -107 -273 -243 -307 -30
-7 -173 -11 -420 -11 -406 0 -418 1 -506 56 -59 38 -98 97 -214 331 -58 116
-108 212 -112 212 -5 0 -8 -7 -8 -16 0 -9 -6 -28 -14 -42 -17 -33 -24 -50 -76
-177 -23 -55 -48 -114 -56 -132 -8 -17 -14 -34 -14 -37 0 -3 -13 -34 -29 -68
-15 -35 -34 -81 -41 -103 -7 -22 -16 -42 -19 -45 -4 -3 -19 -39 -35 -80 -16
-41 -37 -93 -47 -115 -20 -43 -143 -337 -145 -345 0 -3 -5 -16 -11 -30 -6 -14
-34 -81 -63 -150 -28 -69 -58 -138 -65 -155 -7 -16 -43 -103 -81 -193 -56
-136 -75 -170 -115 -212 -43 -45 -109 -84 -164 -96 -46 -11 -137 -5 -182 12
-26 10 -69 34 -95 53 -45 35 -105 118 -112 157 -2 10 -14 46 -26 79 -12 33
-22 65 -23 70 -2 6 -6 16 -10 23 -5 6 -6 12 -2 12 3 0 -1 13 -10 30 -8 16 -15
31 -13 32 1 2 -36 118 -82 258 -46 140 -85 257 -85 260 -1 8 -125 383 -132
400 -3 8 -7 20 -9 25 -1 6 -16 53 -34 105 -17 52 -33 102 -35 110 -2 8 -31 94
-63 191 -33 97 -67 202 -77 233 -10 31 -21 53 -25 49 -3 -4 -23 -53 -44 -108
-21 -55 -44 -113 -51 -130 -7 -16 -34 -86 -60 -155 -50 -130 -64 -157 -104
-203 -34 -38 -111 -84 -158 -93 -21 -5 -41 -9 -45 -10 -5 -1 -528 -2 -1163 -3
l-1155 -1 0 -1092 c1 -703 5 -1113 11 -1148 21 -112 114 -295 171 -334 12 -9
18 -16 13 -16 -14 0 116 -98 165 -124 98 -51 227 -79 355 -75 48 1 119 1 230
-2 28 0 52 0 55 1 7 2 123 2 135 0 6 -1 14 -2 19 -1 7 1 189 2 246 1 13 -1
275 -1 325 0 143 0 215 0 222 -1 4 -1 10 0 13 1 7 2 122 2 135 0 6 -1 13 -2
18 -1 10 2 208 2 272 1 28 -1 52 -1 55 0 7 2 123 2 135 0 6 -1 13 -2 18 -1 10
2 208 2 272 1 28 -1 52 -1 55 0 7 2 123 2 135 0 6 -1 14 -2 19 -1 7 1 189 2
246 1 13 -1 275 -1 325 0 143 0 215 0 222 -1 4 -1 10 0 13 1 7 2 122 2 135 0
6 -1 13 -2 18 -1 10 2 208 2 272 1 28 -1 52 -1 55 0 7 2 123 2 135 0 6 -1 13
-2 18 -1 10 2 208 2 272 1 28 -1 52 -1 55 0 13 4 131 3 135 -1 2 -3 31 -2 63
1 32 3 73 3 90 -1 17 -3 34 -4 37 -1 4 5 108 6 130 2 6 -1 13 -2 18 -1 10 2
208 2 272 1 28 -1 52 -1 55 0 7 2 123 2 135 0 6 -1 13 -2 18 -1 10 2 208 2
272 1 28 -1 52 -1 55 0 7 2 123 2 135 0 6 -1 14 -2 19 -1 7 1 189 2 246 1 13
-1 275 -1 325 0 143 0 215 0 222 -1 4 -1 13 0 18 1 6 1 39 1 75 1 201 -3 284
4 376 33 180 57 335 201 412 383 55 129 52 -35 49 2728 -2 2442 -3 2552 -20
2604 -27 80 -67 161 -101 206 -42 57 -138 155 -152 155 -6 0 -17 6 -23 14 -50
61 -278 123 -428 117 -13 0 -47 -1 -75 -1 -29 0 -80 0 -113 -1 -33 0 -64 -1
-70 0 -5 0 -59 0 -120 0 -60 0 -137 1 -170 1 -75 1 -98 1 -160 0 -55 -1 -227
-1 -320 0 -91 1 -106 1 -160 0 -27 -1 -54 -1 -60 0 -5 1 -14 1 -20 0 -5 -1
-39 -1 -75 -1 -86 2 -120 2 -150 -2 -14 -2 -37 0 -52 4 -16 4 -30 3 -34 -2 -4
-6 -10 -6 -18 0 -7 6 -15 8 -18 6 -3 -3 -48 -5 -99 -5 -52 0 -103 0 -114 0
-11 -1 -24 -1 -30 -1 -5 0 -59 0 -120 0 -60 0 -137 1 -170 1 -71 1 -92 1 -165
0 -30 0 -77 0 -104 0 -27 0 -51 -2 -53 -4 -3 -2 -18 0 -34 4 -17 5 -31 5 -35
-1 -4 -6 -10 -6 -18 0 -7 6 -15 8 -18 6 -3 -3 -45 -6 -94 -5 -49 0 -115 0
-146 0 -54 0 -151 0 -215 1 -16 0 -50 -1 -78 -1 -27 -1 -54 -1 -60 0 -5 1 -14
1 -20 0 -5 -1 -37 -1 -70 -1 -77 2 -109 2 -165 1 -46 -1 -218 -1 -325 0 -84 1
-105 1 -280 -1 -33 0 -64 -1 -70 0 -5 0 -59 0 -120 0 -60 0 -137 1 -170 1 -75
1 -98 1 -160 0 -55 -1 -227 -1 -320 0 -91 1 -106 1 -160 0 -27 -1 -54 -1 -60
0 -5 1 -14 1 -20 0 -5 -1 -39 -1 -75 -1 -86 2 -120 2 -150 -2 -14 -2 -37 0
-52 4 -16 4 -30 3 -34 -2 -4 -6 -10 -6 -18 0 -7 6 -15 8 -18 6 -3 -3 -48 -5
-99 -5 -52 0 -103 0 -114 0 -11 -1 -24 -1 -30 -1 -5 0 -59 0 -120 0 -60 0
-137 1 -170 1 -33 1 -73 1 -90 1 -42 -1 -148 0 -160 0 -5 0 -53 0 -106 -2 -53
-1 -101 1 -107 5 -6 3 -13 2 -16 -3 -4 -6 -18 -6 -35 -1 -16 4 -31 6 -34 4z"/>
</g>
</svg>
