<?xml version="1.0" encoding="utf-8"?>
<svg width="605px" height="583px" viewBox="0 0 605 583" version="1.1" xmlns:xlink="http://www.w3.org/1999/xlink" xmlns="http://www.w3.org/2000/svg">
  <path d="M0 0L505.001 0Q507.456 0 509.908 0.120453Q512.36 0.240906 514.803 0.481523Q517.246 0.722139 519.674 1.08234Q522.102 1.44254 524.51 1.92145Q526.917 2.40037 529.299 2.99684Q531.68 3.59332 534.029 4.30592Q536.378 5.01853 538.69 5.84553Q541.001 6.67254 543.269 7.61197Q545.537 8.5514 547.756 9.60097Q549.975 10.6506 552.14 11.8078Q554.305 12.965 556.411 14.227Q558.516 15.489 560.557 16.8529Q562.599 18.2167 564.57 19.6791Q566.542 21.1414 568.44 22.6987Q570.337 24.2561 572.156 25.9046Q573.975 27.5532 575.711 29.289Q577.447 31.0249 579.095 32.8438Q580.744 34.6627 582.301 36.5603Q583.859 38.4579 585.321 40.4297Q586.783 42.4014 588.147 44.4425Q589.511 46.4837 590.773 48.5892Q592.035 50.6948 593.192 52.8598Q594.349 55.0248 595.399 57.2439Q596.448 59.4631 597.388 61.731Q598.327 63.999 599.154 66.3103Q599.981 68.6217 600.694 70.9708Q601.407 73.3199 602.003 75.7012Q602.6 78.0825 603.078 80.4902Q603.557 82.8978 603.918 85.3261Q604.278 87.7544 604.518 90.1974Q604.759 92.6404 604.88 95.0923Q605 97.5442 605 99.999L605 583L0 583L0 0Z" id="bg" fill="#FAB91C" fill-opacity="0.039215688" fill-rule="evenodd" stroke="none" />
</svg>