<?xml version="1.0" encoding="utf-8"?>
<svg width="17px" height="17px" viewBox="0 0 17 17" version="1.1" xmlns:xlink="http://www.w3.org/1999/xlink" xmlns="http://www.w3.org/2000/svg">
  <g id="Icon" transform="translate(0.5 0.5)">
    <path d="M7.66667 15.3333C11.9008 15.3333 15.3333 11.9008 15.3333 7.66667C15.3333 3.43248 11.9008 0 7.66667 0C3.43248 0 0 3.43248 0 7.66667C0 11.9008 3.43248 15.3333 7.66667 15.3333Z" transform="matrix(1 0 0 1 -1.5010215E-13 3.046452E-13)" id="Oval" fill="none" fill-rule="evenodd" stroke="#FAB91C" stroke-width="1" stroke-linecap="round" stroke-linejoin="round" />
    <path d="M3.29533 3.29467L0 0" transform="translate(8.371333 8.372)" id="Shape" fill="none" fill-rule="evenodd" stroke="#FAB91C" stroke-width="1" stroke-linecap="round" stroke-linejoin="round" />
    <path d="M1 2C1.55228 2 2 1.55228 2 1C2 0.447715 1.55228 0 1 0C0.447715 0 0 0.447715 0 1C0 1.55228 0.447715 2 1 2Z" transform="translate(6.6666665 6.6666665)" id="Oval" fill="none" fill-rule="evenodd" stroke="#FAB91C" stroke-width="1" stroke-linecap="round" stroke-linejoin="round" />
    <path d="M0 0L0 2.66667" transform="translate(7.6666665 4)" id="Shape" fill="none" fill-rule="evenodd" stroke="#FAB91C" stroke-width="1" stroke-linecap="round" stroke-linejoin="round" />
  </g>
</svg>