<?xml version="1.0" encoding="utf-8"?>
<svg width="17px" height="17px" viewBox="0 0 17 17" version="1.1" xmlns:xlink="http://www.w3.org/1999/xlink" xmlns="http://www.w3.org/2000/svg">
  <g id="Icon" transform="translate(0.5 0.5)">
    <path d="M6.276 0L0 6.276" transform="translate(-7.993606E-14 9.057191)" id="Shape" fill="none" fill-rule="evenodd" stroke="#FAB91C" stroke-width="1" stroke-linecap="round" stroke-linejoin="round" />
    <path d="M10.3905 5.39052C10.4789 5.47895 10.5988 5.52863 10.7239 5.52863C10.8489 5.52863 10.9688 5.47895 11.0572 5.39052L11.5859 4.86186C11.8461 4.60152 11.8461 4.17952 11.5859 3.91919L7.86186 0.195191C7.60152 -0.0650637 7.17952 -0.0650637 6.91919 0.195191L6.39052 0.723858C6.3021 0.812254 6.25242 0.932161 6.25242 1.05719C6.25242 1.18222 6.3021 1.30213 6.39052 1.39052C6.47895 1.47892 6.52863 1.59883 6.52863 1.72386C6.52863 1.84889 6.47895 1.96879 6.39052 2.05719L3.58586 4.86186C3.46086 4.98689 3.29132 5.05715 3.11452 5.05719L0.999858 5.05719C0.823061 5.05723 0.653519 5.12749 0.528524 5.25252L0.195191 5.58586C-0.0650637 5.84619 -0.0650637 6.26819 0.195191 6.52852L5.25252 11.5859C5.51286 11.8461 5.93486 11.8461 6.19519 11.5859L6.52852 11.2525C6.65356 11.1275 6.72382 10.958 6.72386 10.7812L6.72386 8.66719C6.7239 8.49039 6.79416 8.32085 6.91919 8.19586L9.72386 5.39119C9.81217 5.30268 9.93202 5.25288 10.0571 5.25276C10.1821 5.25263 10.302 5.30219 10.3905 5.39052Z" transform="translate(3.5521424 3.6060044E-13)" id="Shape" fill="none" fill-rule="evenodd" stroke="#FAB91C" stroke-width="1" stroke-linecap="round" stroke-linejoin="round" />
  </g>
</svg>