<?xml version="1.0" encoding="utf-8"?>
<svg width="50px" height="40px" viewBox="0 0 50 40" version="1.1" xmlns:xlink="http://www.w3.org/1999/xlink" xmlns="http://www.w3.org/2000/svg">
  <g id="heart-rate-monitor">
    <path d="M45.8333 0L4.16667 0C1.875 0 0 1.89474 0 4.21053L0 17.3484L12.8135 17.3484L15.6135 10.1095C15.9333 9.28316 16.7531 8.7421 17.6073 8.77158C18.4844 8.79474 19.2542 9.37053 19.5313 10.2116L23.4927 22.2505L27.7677 11.9737C28.0823 11.2189 28.8 10.7168 29.6115 10.6863C30.4469 10.6505 31.1771 11.1032 31.5437 11.8326L34.3312 17.3495L37.1531 17.3495C38.3031 17.3495 39.2365 18.2926 39.2365 19.4547C39.2365 20.6168 38.3031 21.56 37.1531 21.56L33.0542 21.56C32.2708 21.56 31.5562 21.1147 31.2 20.4116L29.8719 17.78L25.1854 29.0432C24.8604 29.8263 24.101 30.3347 23.2656 30.3347C23.2385 30.3347 23.2115 30.3347 23.1844 30.3326C22.3167 30.3 21.5615 29.7263 21.2875 28.8937L17.3958 17.0674L16.1771 20.22C15.8646 21.0284 15.0948 21.5579 14.2365 21.5579L0 21.5579L0 34.7863C0 37.1021 1.875 38.9968 4.16667 38.9968L45.8333 38.9968C48.125 38.9968 50 37.1021 50 34.7863L50 4.20842C50 1.89474 48.125 0 45.8333 0Z" transform="translate(0 0.5010526)" id="Path" fill="#FAB91C" stroke="none" />
  </g>
</svg>