<?xml version="1.0" encoding="utf-8"?>
<svg width="1305px" height="780px" viewBox="0 0 1305 780" version="1.1" xmlns:xlink="http://www.w3.org/1999/xlink" xmlns="http://www.w3.org/2000/svg">
  <defs>
    <filter filterUnits="userSpaceOnUse" color-interpolation-filters="sRGB" id="filter_1">
      <feFlood flood-opacity="0" result="BackgroundImageFix" />
      <feColorMatrix in="SourceAlpha" type="matrix" values="0 0 0 0 0 0 0 0 0 0 0 0 0 0 0 0 0 0 127 0" />
      <feOffset dx="0" dy="20" />
      <feGaussianBlur stdDeviation="20" />
      <feColorMatrix type="matrix" values="0 0 0 0 0.05882353 0 0 0 0 0.10980392 0 0 0 0 0.28627452 0 0 0 0.039215688 0" />
      <feBlend mode="normal" in2="BackgroundImageFix" result="effect0_dropShadow" />
      <feBlend mode="normal" in="SourceGraphic" in2="effect0_dropShadow" result="shape" />
    </filter>
  </defs>
  <path d="M99.999 0L1297 0Q1297.2 0 1297.39 0.00963514Q1297.59 0.0192703 1297.78 0.0385174Q1297.98 0.0577644 1298.17 0.0865771Q1298.37 0.11539 1298.56 0.153699Q1298.75 0.192007 1298.94 0.23972Q1299.13 0.287433 1299.32 0.344434Q1299.51 0.401436 1299.7 0.467589Q1299.88 0.533742 1300.06 0.608888Q1300.24 0.684033 1300.42 0.76799Q1300.6 0.851946 1300.77 0.944512Q1300.94 1.03708 1301.11 1.13803Q1301.28 1.23898 1301.44 1.34807Q1301.61 1.45717 1301.77 1.57414Q1301.92 1.69112 1302.08 1.81569Q1302.23 1.94026 1302.37 2.07213Q1302.52 2.204 1302.66 2.34285Q1302.8 2.4817 1302.93 2.6272Q1303.06 2.7727 1303.18 2.92449Q1303.31 3.07628 1303.43 3.234Q1303.54 3.39172 1303.65 3.55499Q1303.76 3.71826 1303.86 3.88669Q1303.96 4.05512 1304.06 4.2283Q1304.15 4.40148 1304.23 4.57899Q1304.32 4.7565 1304.39 4.93791Q1304.47 5.11933 1304.53 5.30422Q1304.6 5.4891 1304.66 5.67701Q1304.71 5.86492 1304.76 6.0554Q1304.81 6.24588 1304.85 6.43847Q1304.88 6.63106 1304.91 6.8253Q1304.94 7.01954 1304.96 7.21496Q1304.98 7.41038 1304.99 7.60651Q1305 7.80264 1305 7.999L1305 629.001Q1305 629.197 1304.99 629.393Q1304.98 629.59 1304.96 629.785Q1304.94 629.98 1304.91 630.175Q1304.88 630.369 1304.85 630.561Q1304.81 630.754 1304.76 630.945Q1304.71 631.135 1304.66 631.323Q1304.6 631.511 1304.53 631.696Q1304.47 631.881 1304.39 632.062Q1304.32 632.243 1304.23 632.421Q1304.15 632.599 1304.06 632.772Q1303.96 632.945 1303.86 633.113Q1303.76 633.282 1303.65 633.445Q1303.54 633.608 1303.43 633.766Q1303.31 633.924 1303.18 634.076Q1303.06 634.227 1302.93 634.373Q1302.8 634.518 1302.66 634.657Q1302.52 634.796 1302.37 634.928Q1302.23 635.06 1302.08 635.184Q1301.92 635.309 1301.77 635.426Q1301.61 635.543 1301.44 635.652Q1301.28 635.761 1301.11 635.862Q1300.94 635.963 1300.77 636.055Q1300.6 636.148 1300.42 636.232Q1300.24 636.316 1300.06 636.391Q1299.88 636.466 1299.7 636.532Q1299.51 636.599 1299.32 636.656Q1299.13 636.713 1298.94 636.76Q1298.75 636.808 1298.56 636.846Q1298.37 636.885 1298.17 636.913Q1297.98 636.942 1297.78 636.962Q1297.59 636.981 1297.39 636.99Q1297.2 637 1297 637L7.999 637Q7.80264 637 7.60651 636.99Q7.41038 636.981 7.21496 636.962Q7.01954 636.942 6.8253 636.913Q6.63106 636.885 6.43847 636.846Q6.24588 636.808 6.0554 636.76Q5.86492 636.713 5.67701 636.656Q5.4891 636.599 5.30422 636.532Q5.11933 636.466 4.93791 636.391Q4.7565 636.316 4.57899 636.232Q4.40148 636.148 4.2283 636.055Q4.05512 635.963 3.88669 635.862Q3.71826 635.761 3.55499 635.652Q3.39172 635.543 3.234 635.426Q3.07628 635.309 2.92449 635.184Q2.7727 635.06 2.6272 634.928Q2.4817 634.796 2.34285 634.657Q2.204 634.518 2.07213 634.373Q1.94026 634.227 1.81569 634.076Q1.69112 633.924 1.57414 633.766Q1.45717 633.608 1.34807 633.445Q1.23898 633.282 1.13803 633.113Q1.03708 632.945 0.944512 632.772Q0.851946 632.599 0.76799 632.421Q0.684033 632.243 0.608888 632.062Q0.533742 631.881 0.467589 631.696Q0.401436 631.511 0.344434 631.323Q0.287433 631.135 0.23972 630.945Q0.192007 630.754 0.153699 630.561Q0.11539 630.369 0.0865771 630.175Q0.0577644 629.98 0.0385174 629.785Q0.0192703 629.59 0.00963514 629.393Q0 629.197 0 629.001L0 99.999Q0 97.5442 0.120453 95.0923Q0.240906 92.6404 0.481523 90.1974Q0.722139 87.7544 1.08234 85.3261Q1.44254 82.8978 1.92145 80.4902Q2.40037 78.0825 2.99684 75.7012Q3.59332 73.32 4.30592 70.9708Q5.01853 68.6217 5.84553 66.3103Q6.67254 63.999 7.61197 61.731Q8.5514 59.4631 9.60097 57.2439Q10.6506 55.0248 11.8078 52.8598Q12.965 50.6948 14.227 48.5892Q15.489 46.4837 16.8529 44.4425Q18.2167 42.4014 19.6791 40.4297Q21.1414 38.4579 22.6987 36.5603Q24.2561 34.6627 25.9046 32.8438Q27.5532 31.0249 29.289 29.289Q31.0249 27.5532 32.8438 25.9046Q34.6627 24.2561 36.5603 22.6987Q38.4579 21.1414 40.4297 19.679Q42.4014 18.2167 44.4425 16.8529Q46.4837 15.489 48.5892 14.227Q50.6948 12.965 52.8598 11.8078Q55.0248 10.6506 57.2439 9.60097Q59.4631 8.5514 61.731 7.61197Q63.999 6.67254 66.3103 5.84553Q68.6217 5.01853 70.9708 4.30592Q73.3199 3.59332 75.7012 2.99684Q78.0825 2.40037 80.4902 1.92145Q82.8978 1.44254 85.3261 1.08234Q87.7544 0.722139 90.1974 0.481523Q92.6404 0.240906 95.0923 0.120453Q97.5442 0 99.999 0L99.999 0Z" transform="translate(0 143)" id="bg" fill="#F9FAFB" fill-rule="evenodd" stroke="none" />
  <g id="Services" transform="translate(600 8)">
    <g id="Perfume" transform="translate(300 0)">
      <path d="M99.999 0L262.001 0Q262.197 0 262.393 0.00963514Q262.59 0.0192703 262.785 0.0385174Q262.98 0.0577644 263.175 0.0865771Q263.369 0.11539 263.561 0.153699Q263.754 0.192007 263.945 0.23972Q264.135 0.287433 264.323 0.344434Q264.511 0.401436 264.696 0.467589Q264.881 0.533742 265.062 0.608888Q265.243 0.684033 265.421 0.76799Q265.598 0.851946 265.772 0.944512Q265.945 1.03708 266.113 1.13803Q266.282 1.23898 266.445 1.34807Q266.608 1.45717 266.766 1.57414Q266.924 1.69112 267.075 1.81569Q267.227 1.94026 267.373 2.07213Q267.518 2.204 267.657 2.34285Q267.796 2.4817 267.928 2.6272Q268.06 2.7727 268.184 2.92449Q268.309 3.07628 268.426 3.234Q268.543 3.39172 268.652 3.55499Q268.761 3.71826 268.862 3.88669Q268.963 4.05512 269.055 4.2283Q269.148 4.40148 269.232 4.57899Q269.316 4.7565 269.391 4.93791Q269.466 5.11933 269.532 5.30422Q269.599 5.4891 269.656 5.67701Q269.713 5.86492 269.76 6.0554Q269.808 6.24588 269.846 6.43847Q269.885 6.63106 269.913 6.8253Q269.942 7.01954 269.961 7.21496Q269.981 7.41038 269.99 7.60651Q270 7.80264 270 7.999L270 170.001Q270 172.456 269.88 174.908Q269.759 177.36 269.518 179.803Q269.278 182.246 268.918 184.674Q268.557 187.102 268.079 189.51Q267.6 191.917 267.003 194.299Q266.407 196.68 265.694 199.029Q264.981 201.378 264.154 203.69Q263.327 206.001 262.388 208.269Q261.449 210.537 260.399 212.756Q259.349 214.975 258.192 217.14Q257.035 219.305 255.773 221.411Q254.511 223.516 253.147 225.557Q251.783 227.599 250.321 229.57Q248.859 231.542 247.301 233.44Q245.744 235.337 244.095 237.156Q242.447 238.975 240.711 240.711Q238.975 242.447 237.156 244.095Q235.337 245.744 233.44 247.301Q231.542 248.859 229.57 250.321Q227.599 251.783 225.557 253.147Q223.516 254.511 221.411 255.773Q219.305 257.035 217.14 258.192Q214.975 259.349 212.756 260.399Q210.537 261.449 208.269 262.388Q206.001 263.327 203.69 264.154Q201.378 264.981 199.029 265.694Q196.68 266.407 194.299 267.003Q191.917 267.6 189.51 268.079Q187.102 268.557 184.674 268.918Q182.246 269.278 179.803 269.518Q177.36 269.759 174.908 269.88Q172.456 270 170.001 270L7.999 270Q7.80264 270 7.60651 269.99Q7.41038 269.981 7.21496 269.961Q7.01954 269.942 6.8253 269.913Q6.63106 269.885 6.43847 269.846Q6.24588 269.808 6.0554 269.76Q5.86492 269.713 5.67701 269.656Q5.4891 269.599 5.30422 269.532Q5.11933 269.466 4.93791 269.391Q4.7565 269.316 4.57899 269.232Q4.40148 269.148 4.2283 269.055Q4.05512 268.963 3.88669 268.862Q3.71826 268.761 3.55499 268.652Q3.39172 268.543 3.234 268.426Q3.07628 268.309 2.92449 268.184Q2.7727 268.06 2.6272 267.928Q2.4817 267.796 2.34285 267.657Q2.204 267.518 2.07213 267.373Q1.94026 267.227 1.81569 267.075Q1.69112 266.924 1.57414 266.766Q1.45717 266.608 1.34807 266.445Q1.23898 266.282 1.13803 266.113Q1.03708 265.945 0.944512 265.772Q0.851946 265.598 0.76799 265.421Q0.684033 265.243 0.608888 265.062Q0.533742 264.881 0.467589 264.696Q0.401436 264.511 0.344434 264.323Q0.287433 264.135 0.23972 263.945Q0.192007 263.754 0.153699 263.561Q0.11539 263.369 0.0865771 263.175Q0.0577644 262.98 0.0385174 262.785Q0.0192703 262.59 0.00963514 262.393Q0 262.197 0 262.001L0 99.999Q0 97.5442 0.120453 95.0923Q0.240906 92.6404 0.481523 90.1974Q0.722139 87.7544 1.08234 85.3261Q1.44254 82.8978 1.92145 80.4902Q2.40037 78.0825 2.99684 75.7012Q3.59332 73.32 4.30592 70.9708Q5.01853 68.6217 5.84553 66.3103Q6.67254 63.999 7.61197 61.731Q8.5514 59.4631 9.60097 57.2439Q10.6506 55.0248 11.8078 52.8598Q12.965 50.6948 14.227 48.5892Q15.489 46.4837 16.8529 44.4425Q18.2167 42.4014 19.6791 40.4297Q21.1414 38.4579 22.6987 36.5603Q24.2561 34.6627 25.9046 32.8438Q27.5532 31.0249 29.289 29.289Q31.0249 27.5532 32.8438 25.9046Q34.6627 24.2561 36.5603 22.6987Q38.4579 21.1414 40.4297 19.679Q42.4014 18.2167 44.4425 16.8529Q46.4837 15.489 48.5892 14.227Q50.6948 12.965 52.8598 11.8078Q55.0248 10.6506 57.2439 9.60097Q59.4631 8.5514 61.731 7.61197Q63.999 6.67254 66.3103 5.84553Q68.6217 5.01853 70.9708 4.30592Q73.3199 3.59332 75.7012 2.99684Q78.0825 2.40037 80.4902 1.92145Q82.8978 1.44254 85.3261 1.08234Q87.7544 0.722139 90.1974 0.481523Q92.6404 0.240906 95.0923 0.120453Q97.5442 0 99.999 0L99.999 0Z" id="Rectangle-Copy-13" fill="#F9FAFB" fill-rule="evenodd" stroke="#FFFFFF" stroke-width="16" filter="url(#filter_1)" />
      <g id="Serviceiconbody-cream" transform="translate(95 60)">
        <g id="Group" transform="translate(2 0)">
          <g id="Light">
            <path d="M0 15.094L0 6.83761C0 3.0613 3.06544 7.59127e-16 6.84685 0L10.2703 0C14.0517 0 17.1171 3.0613 17.1171 6.83761L17.1171 15.094" transform="translate(17.45946 4.1025643)" id="Shape" fill="none" fill-rule="evenodd" stroke="#FAB91C" stroke-width="2" stroke-linecap="round" stroke-linejoin="round" />
            <path d="M0 0L13.6937 0" transform="translate(34.576576 10.940171)" id="Shape" fill="none" fill-rule="evenodd" stroke="#FAB91C" stroke-width="2" stroke-linecap="round" stroke-linejoin="round" />
            <path d="M13.6937 20.5128C21.2565 20.5128 27.3874 15.9209 27.3874 10.2564C27.3874 4.59195 21.2565 0 13.6937 0C6.13088 0 0 4.59195 0 10.2564C0 15.9209 6.13088 20.5128 13.6937 20.5128Z" transform="translate(48.27027 0.6837607)" id="Oval" fill="none" fill-rule="evenodd" stroke="#FAB91C" stroke-width="2" stroke-linecap="round" stroke-linejoin="round" />
            <path d="M36.7984 1.2146e-14L43.8198 9.34701C44.5979 10.383 44.723 11.769 44.1431 12.9272C43.5632 14.0855 42.3778 14.8171 41.0811 14.8171L3.42344 14.8171C2.12675 14.8171 0.941341 14.0855 0.36144 12.9272C-0.21846 11.769 -0.0933139 10.383 0.684704 9.34701L7.70272 0" transform="translate(3.765746 64.499146)" id="Shape" fill="none" fill-rule="evenodd" stroke="#FAB91C" stroke-width="2" stroke-linecap="round" stroke-linejoin="round" />
            <path d="M25.6757 51.2821C39.856 51.2821 51.3514 39.8022 51.3514 25.641C51.3514 11.4799 39.856 0 25.6757 0C11.4954 0 0 11.4799 0 25.641C0 39.8022 11.4954 51.2821 25.6757 51.2821Z" transform="translate(0.34234235 17.726496)" id="Oval" fill="none" fill-rule="evenodd" stroke="#FAB91C" stroke-width="2" stroke-linecap="round" stroke-linejoin="round" />
            <path d="M1.71171 0L0 0" transform="translate(8.904325 10.940171)" id="Shape" fill="none" fill-rule="evenodd" stroke="#FAB91C" stroke-width="2" stroke-linecap="round" stroke-linejoin="round" />
            <path d="M1.71171 0L0 0" transform="translate(0.34576577 10.940171)" id="Shape" fill="none" fill-rule="evenodd" stroke="#FAB91C" stroke-width="2" stroke-linecap="round" stroke-linejoin="round" />
            <path d="M0 0L5.13514 0" transform="translate(17.462883 10.940171)" id="Shape" fill="none" fill-rule="evenodd" stroke="#FAB91C" stroke-width="2" stroke-linecap="round" stroke-linejoin="round" />
            <path d="M0 0L0 20.5128" transform="translate(61.963963 0.6837607)" id="Shape" fill="none" fill-rule="evenodd" stroke="#FAB91C" stroke-width="2" stroke-linecap="round" stroke-linejoin="round" />
          </g>
        </g>
      </g>
      <g id="Perfume" fill="#0F1C49" transform="translate(68 172)">
        <path d="M60.172 26.9C60.012 26.9 59.876 26.844 59.764 26.732Q59.596 26.564 59.596 26.324L59.596 16.964L57.652 16.964Q57.412 16.964 57.244 16.796Q57.076 16.628 57.076 16.364L57.076 14.996Q57.076 14.756 57.244 14.588Q57.412 14.42 57.652 14.42L59.596 14.42L59.596 13.436Q59.596 11.996 60.124 11.048Q60.652 10.1 61.684 9.62Q62.716 9.14 64.3 9.14L65.932 9.14Q66.196 9.14 66.352 9.308Q66.508 9.476 66.508 9.716L66.508 11.084Q66.508 11.348 66.352 11.516Q66.196 11.684 65.932 11.684L64.396 11.684Q63.436 11.684 63.076 12.164Q62.716 12.644 62.716 13.556L62.716 14.42L65.692 14.42Q65.956 14.42 66.112 14.588Q66.268 14.756 66.268 14.996L66.268 16.364Q66.268 16.628 66.112 16.796Q65.956 16.964 65.692 16.964L62.716 16.964L62.716 26.324Q62.716 26.564 62.548 26.732C62.436 26.844 62.3 26.9 62.14 26.9L60.172 26.9ZM19.444 26.9Q19.204 26.9 19.036 26.732Q18.868 26.564 18.868 26.324L18.868 10.7Q18.868 10.436 19.036 10.268Q19.204 10.1 19.444 10.1L25.876 10.1Q27.748 10.1 29.14 10.688Q30.532 11.276 31.3 12.464Q32.068 13.652 32.068 15.428Q32.068 17.228 31.3 18.392Q30.532 19.556 29.14 20.132Q27.748 20.708 25.876 20.708L22.3 20.708L22.3 26.324Q22.3 26.564 22.144 26.732C22.04 26.844 21.9 26.9 21.724 26.9L19.444 26.9ZM22.252 18.044L25.756 18.044Q27.148 18.044 27.892 17.384Q28.636 16.724 28.636 15.428Q28.636 14.228 27.94 13.496Q27.244 12.764 25.756 12.764L22.252 12.764L22.252 18.044ZM83.668 26.9Q83.428 26.9 83.26 26.732Q83.092 26.564 83.092 26.324L83.092 14.996Q83.092 14.756 83.26 14.588Q83.428 14.42 83.668 14.42L85.54 14.42Q85.78 14.42 85.948 14.588Q86.116 14.756 86.116 14.996L86.116 15.812Q86.62 15.14 87.472 14.672Q88.324 14.204 89.5 14.18Q92.236 14.132 93.316 16.316Q93.868 15.356 94.912 14.768Q95.956 14.18 97.228 14.18Q98.476 14.18 99.496 14.756Q100.516 15.332 101.104 16.496Q101.692 17.66 101.692 19.436L101.692 26.324Q101.692 26.564 101.524 26.732C101.412 26.844 101.276 26.9 101.116 26.9L99.148 26.9C98.988 26.9 98.852 26.844 98.74 26.732Q98.572 26.564 98.572 26.324L98.572 19.628Q98.572 18.548 98.26 17.912Q97.948 17.276 97.42 17.012Q96.892 16.748 96.244 16.748Q95.716 16.748 95.188 17.012Q94.66 17.276 94.324 17.912Q93.988 18.548 93.988 19.628L93.988 26.324Q93.988 26.564 93.82 26.732C93.708 26.844 93.572 26.9 93.412 26.9L91.444 26.9Q91.204 26.9 91.036 26.732Q90.868 26.564 90.868 26.324L90.868 19.628Q90.868 18.548 90.532 17.912Q90.196 17.276 89.668 17.012Q89.14 16.748 88.54 16.748Q87.988 16.748 87.46 17.024Q86.932 17.3 86.596 17.924Q86.26 18.548 86.26 19.628L86.26 26.324Q86.26 26.564 86.092 26.732C85.98 26.844 85.844 26.9 85.684 26.9L83.668 26.9ZM39.772 27.14Q37.108 27.14 35.548 25.604Q33.988 24.068 33.868 21.236Q33.844 20.996 33.844 20.624Q33.844 20.252 33.868 20.036Q33.964 18.212 34.696 16.904Q35.428 15.596 36.724 14.888Q38.02 14.18 39.772 14.18Q41.716 14.18 43.036 14.984Q44.356 15.788 45.028 17.216Q45.7 18.644 45.7 20.516L45.7 21.02Q45.7 21.26 45.532 21.428Q45.364 21.596 45.1 21.596L37.132 21.596L37.132 21.788Q37.156 22.628 37.456 23.336Q37.756 24.044 38.344 24.476Q38.932 24.908 39.748 24.908Q40.42 24.908 40.876 24.704Q41.332 24.5 41.62 24.236Q41.908 23.972 42.028 23.804Q42.244 23.516 42.376 23.456Q42.508 23.396 42.772 23.396L44.836 23.396Q45.076 23.396 45.232 23.54Q45.388 23.684 45.364 23.9Q45.34 24.284 44.968 24.836Q44.596 25.388 43.9 25.916Q43.204 26.444 42.16 26.792Q41.116 27.14 39.772 27.14ZM105.892 25.604Q107.452 27.14 110.116 27.14Q111.46 27.14 112.504 26.792Q113.548 26.444 114.244 25.916Q114.94 25.388 115.312 24.836Q115.684 24.284 115.708 23.9Q115.732 23.684 115.576 23.54Q115.42 23.396 115.18 23.396L113.116 23.396Q112.852 23.396 112.72 23.456Q112.588 23.516 112.372 23.804Q112.252 23.972 111.964 24.236Q111.676 24.5 111.22 24.704Q110.764 24.908 110.092 24.908Q109.276 24.908 108.688 24.476Q108.1 24.044 107.8 23.336Q107.5 22.628 107.476 21.788L107.476 21.596L115.444 21.596Q115.708 21.596 115.876 21.428Q116.044 21.26 116.044 21.02L116.044 20.516Q116.044 18.644 115.372 17.216Q114.7 15.788 113.38 14.984Q112.06 14.18 110.116 14.18Q108.364 14.18 107.068 14.888Q105.772 15.596 105.04 16.904Q104.308 18.212 104.212 20.036Q104.188 20.252 104.188 20.624Q104.188 20.996 104.212 21.236Q104.332 24.068 105.892 25.604ZM48.412 26.732C48.524 26.844 48.66 26.9 48.82 26.9L50.908 26.9C51.084 26.9 51.228 26.844 51.34 26.732Q51.508 26.564 51.508 26.324L51.508 19.724Q51.508 18.572 52.144 17.936Q52.78 17.3 53.932 17.3L55.804 17.3Q56.068 17.3 56.224 17.132Q56.38 16.964 56.38 16.724L56.38 14.996Q56.38 14.756 56.224 14.588Q56.068 14.42 55.804 14.42L54.82 14.42Q53.668 14.42 52.792 14.828Q51.916 15.236 51.364 16.004L51.364 15.02Q51.364 14.756 51.184 14.588Q51.004 14.42 50.764 14.42L48.82 14.42Q48.58 14.42 48.412 14.588Q48.244 14.756 48.244 15.02L48.244 26.324Q48.244 26.564 48.412 26.732ZM70.288 26.48Q71.356 27.14 72.82 27.14Q74.26 27.14 75.22 26.66Q76.18 26.18 76.828 25.34L76.828 26.324Q76.828 26.564 76.984 26.732Q77.14 26.9 77.404 26.9L79.348 26.9C79.508 26.9 79.644 26.844 79.756 26.732Q79.924 26.564 79.924 26.324L79.924 14.996Q79.924 14.756 79.756 14.588Q79.588 14.42 79.348 14.42L77.236 14.42Q76.996 14.42 76.828 14.588Q76.66 14.756 76.66 14.996L76.66 21.596Q76.66 22.988 75.928 23.78Q75.196 24.572 73.948 24.572Q71.332 24.572 71.332 21.596L71.332 14.996Q71.332 14.756 71.176 14.588Q71.02 14.42 70.756 14.42L68.644 14.42Q68.404 14.42 68.236 14.588Q68.068 14.756 68.068 14.996L68.068 21.74Q68.068 23.396 68.644 24.608Q69.22 25.82 70.288 26.48ZM37.132 19.58L42.436 19.58L42.436 19.508Q42.436 18.572 42.124 17.864Q41.812 17.156 41.212 16.76Q40.612 16.364 39.772 16.364Q38.932 16.364 38.332 16.76Q37.732 17.156 37.432 17.864Q37.132 18.572 37.132 19.508L37.132 19.58ZM112.78 19.58L107.476 19.58L107.476 19.508Q107.476 18.572 107.776 17.864Q108.076 17.156 108.676 16.76Q109.276 16.364 110.116 16.364Q110.956 16.364 111.556 16.76Q112.156 17.156 112.468 17.864Q112.78 18.572 112.78 19.508L112.78 19.58Z" />
      </g>
    </g>
    <g id="Steam" transform="translate(300 300)">
      <path d="M7.999 0L170.001 0Q172.456 0 174.908 0.120453Q177.36 0.240906 179.803 0.481523Q182.246 0.722139 184.674 1.08234Q187.102 1.44254 189.51 1.92145Q191.917 2.40037 194.299 2.99684Q196.68 3.59332 199.029 4.30592Q201.378 5.01853 203.69 5.84553Q206.001 6.67254 208.269 7.61197Q210.537 8.5514 212.756 9.60097Q214.975 10.6506 217.14 11.8078Q219.305 12.965 221.411 14.227Q223.516 15.489 225.557 16.8529Q227.599 18.2167 229.57 19.6791Q231.542 21.1414 233.44 22.6987Q235.337 24.2561 237.156 25.9046Q238.975 27.5532 240.711 29.289Q242.447 31.0249 244.095 32.8438Q245.744 34.6627 247.301 36.5603Q248.859 38.4579 250.321 40.4297Q251.783 42.4014 253.147 44.4425Q254.511 46.4837 255.773 48.5892Q257.035 50.6948 258.192 52.8598Q259.349 55.0248 260.399 57.2439Q261.449 59.4631 262.388 61.731Q263.327 63.999 264.154 66.3103Q264.981 68.6217 265.694 70.9708Q266.407 73.3199 267.003 75.7012Q267.6 78.0825 268.079 80.4902Q268.557 82.8978 268.918 85.3261Q269.278 87.7544 269.518 90.1974Q269.759 92.6404 269.88 95.0923Q270 97.5442 270 99.999L270 262.001Q270 262.197 269.99 262.393Q269.981 262.59 269.961 262.785Q269.942 262.98 269.913 263.175Q269.885 263.369 269.846 263.561Q269.808 263.754 269.76 263.945Q269.713 264.135 269.656 264.323Q269.599 264.511 269.532 264.696Q269.466 264.881 269.391 265.062Q269.316 265.243 269.232 265.421Q269.148 265.598 269.055 265.772Q268.963 265.945 268.862 266.113Q268.761 266.282 268.652 266.445Q268.543 266.608 268.426 266.766Q268.309 266.924 268.184 267.075Q268.06 267.227 267.928 267.373Q267.796 267.518 267.657 267.657Q267.518 267.796 267.373 267.928Q267.227 268.06 267.075 268.184Q266.924 268.309 266.766 268.426Q266.608 268.543 266.445 268.652Q266.282 268.761 266.113 268.862Q265.945 268.963 265.772 269.055Q265.598 269.148 265.421 269.232Q265.243 269.316 265.062 269.391Q264.881 269.466 264.696 269.532Q264.511 269.599 264.323 269.656Q264.135 269.713 263.945 269.76Q263.754 269.808 263.561 269.846Q263.369 269.885 263.175 269.913Q262.98 269.942 262.785 269.961Q262.59 269.981 262.393 269.99Q262.197 270 262.001 270L99.999 270Q97.5442 270 95.0923 269.88Q92.6404 269.759 90.1974 269.518Q87.7544 269.278 85.3261 268.918Q82.8978 268.557 80.4902 268.079Q78.0825 267.6 75.7012 267.003Q73.32 266.407 70.9708 265.694Q68.6217 264.981 66.3103 264.154Q63.999 263.327 61.731 262.388Q59.4631 261.449 57.2439 260.399Q55.0248 259.349 52.8598 258.192Q50.6948 257.035 48.5892 255.773Q46.4837 254.511 44.4425 253.147Q42.4014 251.783 40.4297 250.321Q38.4579 248.859 36.5603 247.301Q34.6627 245.744 32.8438 244.095Q31.0249 242.447 29.289 240.711Q27.5532 238.975 25.9046 237.156Q24.2561 235.337 22.6987 233.44Q21.1414 231.542 19.679 229.57Q18.2167 227.599 16.8529 225.557Q15.489 223.516 14.227 221.411Q12.965 219.305 11.8078 217.14Q10.6506 214.975 9.60097 212.756Q8.5514 210.537 7.61197 208.269Q6.67254 206.001 5.84553 203.69Q5.01853 201.378 4.30592 199.029Q3.59332 196.68 2.99684 194.299Q2.40037 191.917 1.92145 189.51Q1.44254 187.102 1.08234 184.674Q0.722139 182.246 0.481523 179.803Q0.240906 177.36 0.120453 174.908Q0 172.456 0 170.001L0 7.999Q0 7.80264 0.00963514 7.60651Q0.0192703 7.41038 0.0385174 7.21496Q0.0577644 7.01954 0.0865771 6.8253Q0.11539 6.63106 0.153699 6.43847Q0.192007 6.24588 0.23972 6.0554Q0.287433 5.86492 0.344434 5.67701Q0.401436 5.4891 0.467589 5.30422Q0.533742 5.11933 0.608888 4.93791Q0.684033 4.7565 0.76799 4.57899Q0.851946 4.40148 0.944512 4.2283Q1.03708 4.05512 1.13803 3.88669Q1.23898 3.71826 1.34807 3.55499Q1.45717 3.39172 1.57414 3.234Q1.69112 3.07628 1.81569 2.92449Q1.94026 2.7727 2.07213 2.6272Q2.204 2.4817 2.34285 2.34285Q2.4817 2.204 2.6272 2.07213Q2.7727 1.94026 2.92449 1.81569Q3.07628 1.69112 3.234 1.57414Q3.39172 1.45717 3.55499 1.34807Q3.71826 1.23898 3.88669 1.13803Q4.05512 1.03708 4.2283 0.944512Q4.40148 0.851946 4.57899 0.76799Q4.7565 0.684033 4.93791 0.608888Q5.11933 0.533742 5.30422 0.467589Q5.4891 0.401436 5.67701 0.344434Q5.86492 0.287433 6.0554 0.23972Q6.24588 0.192007 6.43847 0.153699Q6.63106 0.11539 6.8253 0.0865771Q7.01954 0.0577644 7.21496 0.0385174Q7.41038 0.0192703 7.60651 0.00963514Q7.80264 0 7.999 0L7.999 0Z" id="Rectangle-Copy-13" fill="#F9FAFB" fill-rule="evenodd" stroke="#FFFFFF" stroke-width="16" filter="url(#filter_1)" />
      <g id="Serviceiconbody-cream" transform="translate(95 60)">
        <g id="Group" transform="translate(3 0)">
          <g id="Light">
            <path d="M32.6513 29.3902C32.7515 33.7208 31.064 37.9036 27.9807 40.9665C24.8974 44.0295 20.687 45.706 16.3278 45.6064C11.9685 45.706 7.75807 44.0295 4.67481 40.9665C1.59156 37.9036 -0.0960274 33.7208 0.00422489 29.3902C0.00422489 21.8623 10.843 6.26229 14.8768 0.745171C15.2179 0.27713 15.7642 1.60032e-15 16.3459 0C16.9275 -1.60032e-15 17.4739 0.27713 17.815 0.745171C21.8125 6.26229 32.6513 21.8623 32.6513 29.3902Z" transform="translate(40.623226 0.9809547)" id="Shape" fill="none" fill-rule="evenodd" stroke="#FAB91C" stroke-width="2" stroke-linecap="round" stroke-linejoin="round" />
            <path d="M39.902 0L50.7843 0C58.7979 0 65.2941 6.45355 65.2941 14.4144L0 14.4144" transform="translate(0.7254902 61.0018)" id="Shape" fill="none" fill-rule="evenodd" stroke="#FAB91C" stroke-width="2" stroke-linecap="round" stroke-linejoin="round" />
            <path d="M0 0L25.3922 0C33.4057 0 39.902 6.45355 39.902 14.4144L23.5784 14.4144" transform="translate(0.7254902 46.587387)" id="Shape" fill="none" fill-rule="evenodd" stroke="#FAB91C" stroke-width="2" stroke-linecap="round" stroke-linejoin="round" />
            <path d="M0 0L0 36.036" transform="translate(0.7254902 42.983784)" id="Shape" fill="none" fill-rule="evenodd" stroke="#FAB91C" stroke-width="2" stroke-linecap="round" stroke-linejoin="round" />
          </g>
        </g>
      </g>
      <g id="Steam" fill="#0F1C49" transform="translate(68 172)">
        <path d="M37.252 27.14Q35.02 27.14 33.52 26.48Q32.02 25.82 31.24 24.752Q30.46 23.684 30.412 22.508Q30.412 22.292 30.556 22.148Q30.7 22.004 30.916 22.004L33.052 22.004Q33.364 22.004 33.52 22.136Q33.676 22.268 33.796 22.46Q33.94 22.916 34.348 23.36Q34.756 23.804 35.464 24.092Q36.172 24.38 37.252 24.38Q38.98 24.38 39.832 23.804Q40.684 23.228 40.684 22.244Q40.684 21.548 40.228 21.128Q39.772 20.708 38.824 20.36Q37.876 20.012 36.316 19.628Q34.516 19.196 33.304 18.584Q32.092 17.972 31.48 17.036Q30.868 16.1 30.868 14.66Q30.868 13.268 31.624 12.188Q32.38 11.108 33.784 10.484Q35.188 9.86 37.132 9.86Q38.692 9.86 39.892 10.28Q41.092 10.7 41.884 11.384Q42.676 12.068 43.096 12.848Q43.516 13.628 43.54 14.372Q43.54 14.564 43.408 14.72Q43.276 14.876 43.036 14.876L40.804 14.876Q40.612 14.876 40.42 14.78Q40.228 14.684 40.108 14.42Q39.964 13.676 39.172 13.148Q38.38 12.62 37.132 12.62Q35.836 12.62 35.044 13.1Q34.252 13.58 34.252 14.588Q34.252 15.26 34.648 15.704Q35.044 16.148 35.92 16.484Q36.796 16.82 38.236 17.204Q40.276 17.66 41.572 18.26Q42.868 18.86 43.468 19.784Q44.068 20.708 44.068 22.124Q44.068 23.708 43.216 24.824Q42.364 25.94 40.828 26.54Q39.292 27.14 37.252 27.14ZM52.18 26.9Q50.74 26.9 49.756 26.396Q48.772 25.892 48.292 24.896Q47.812 23.9 47.812 22.412L47.812 16.964L45.916 16.964Q45.676 16.964 45.508 16.796Q45.34 16.628 45.34 16.364L45.34 14.996Q45.34 14.756 45.508 14.588Q45.676 14.42 45.916 14.42L47.812 14.42L47.812 10.436Q47.812 10.196 47.968 10.028Q48.124 9.86 48.388 9.86L50.332 9.86Q50.572 9.86 50.74 10.028Q50.908 10.196 50.908 10.436L50.908 14.42L53.908 14.42Q54.148 14.42 54.316 14.588Q54.484 14.756 54.484 14.996L54.484 16.364Q54.484 16.628 54.316 16.796Q54.148 16.964 53.908 16.964L50.908 16.964L50.908 22.172Q50.908 23.156 51.256 23.708Q51.604 24.26 52.468 24.26L54.124 24.26Q54.364 24.26 54.532 24.428Q54.7 24.596 54.7 24.836L54.7 26.324Q54.7 26.564 54.532 26.732C54.42 26.844 54.284 26.9 54.124 26.9L52.18 26.9ZM84.556 26.732Q84.724 26.9 84.964 26.9L86.98 26.9C87.14 26.9 87.276 26.844 87.388 26.732Q87.556 26.564 87.556 26.324L87.556 19.628Q87.556 18.548 87.892 17.924Q88.228 17.3 88.756 17.024Q89.284 16.748 89.836 16.748Q90.436 16.748 90.964 17.012Q91.492 17.276 91.828 17.912Q92.164 18.548 92.164 19.628L92.164 26.324Q92.164 26.564 92.332 26.732Q92.5 26.9 92.74 26.9L94.708 26.9C94.868 26.9 95.004 26.844 95.116 26.732Q95.284 26.564 95.284 26.324L95.284 19.628Q95.284 18.548 95.62 17.912Q95.956 17.276 96.484 17.012Q97.012 16.748 97.54 16.748Q98.188 16.748 98.716 17.012Q99.244 17.276 99.556 17.912Q99.868 18.548 99.868 19.628L99.868 26.324Q99.868 26.564 100.036 26.732C100.148 26.844 100.284 26.9 100.444 26.9L102.412 26.9C102.572 26.9 102.708 26.844 102.82 26.732Q102.988 26.564 102.988 26.324L102.988 19.436Q102.988 17.66 102.4 16.496Q101.812 15.332 100.792 14.756Q99.772 14.18 98.524 14.18Q97.252 14.18 96.208 14.768Q95.164 15.356 94.612 16.316Q93.532 14.132 90.796 14.18Q89.62 14.204 88.768 14.672Q87.916 15.14 87.412 15.812L87.412 14.996Q87.412 14.756 87.244 14.588Q87.076 14.42 86.836 14.42L84.964 14.42Q84.724 14.42 84.556 14.588Q84.388 14.756 84.388 14.996L84.388 26.324Q84.388 26.564 84.556 26.732ZM57.988 25.604Q59.548 27.14 62.212 27.14Q63.556 27.14 64.6 26.792Q65.644 26.444 66.34 25.916Q67.036 25.388 67.408 24.836Q67.78 24.284 67.804 23.9Q67.828 23.684 67.672 23.54Q67.516 23.396 67.276 23.396L65.212 23.396Q64.948 23.396 64.816 23.456Q64.684 23.516 64.468 23.804Q64.348 23.972 64.06 24.236Q63.772 24.5 63.316 24.704Q62.86 24.908 62.188 24.908Q61.372 24.908 60.784 24.476Q60.196 24.044 59.896 23.336Q59.596 22.628 59.572 21.788L59.572 21.596L67.54 21.596Q67.804 21.596 67.972 21.428Q68.14 21.26 68.14 21.02L68.14 20.516Q68.14 18.644 67.468 17.216Q66.796 15.788 65.476 14.984Q64.156 14.18 62.212 14.18Q60.46 14.18 59.164 14.888Q57.868 15.596 57.136 16.904Q56.404 18.212 56.308 20.036Q56.284 20.252 56.284 20.624Q56.284 20.996 56.308 21.236Q56.428 24.068 57.988 25.604ZM74.308 27.14Q73.06 27.14 72.052 26.648Q71.044 26.156 70.456 25.328Q69.868 24.5 69.868 23.468Q69.868 21.788 71.236 20.792Q72.604 19.796 74.812 19.46L78.1 18.98L78.1 18.476Q78.1 17.468 77.596 16.916Q77.092 16.364 75.868 16.364Q75.004 16.364 74.464 16.712Q73.924 17.06 73.66 17.636Q73.468 17.948 73.108 17.948L71.212 17.948Q70.948 17.948 70.816 17.804Q70.684 17.66 70.684 17.42Q70.708 17.036 71.008 16.484Q71.308 15.932 71.92 15.416Q72.532 14.9 73.516 14.54Q74.5 14.18 75.892 14.18Q77.404 14.18 78.448 14.552Q79.492 14.924 80.116 15.548Q80.74 16.172 81.028 17.012Q81.316 17.852 81.316 18.788L81.316 26.324Q81.316 26.564 81.148 26.732C81.036 26.844 80.9 26.9 80.74 26.9L78.796 26.9Q78.532 26.9 78.376 26.732Q78.22 26.564 78.22 26.324L78.22 25.388Q77.908 25.82 77.38 26.228Q76.852 26.636 76.096 26.888Q75.34 27.14 74.308 27.14ZM64.876 19.58L59.572 19.58L59.572 19.508Q59.572 18.572 59.872 17.864Q60.172 17.156 60.772 16.76Q61.372 16.364 62.212 16.364Q63.052 16.364 63.652 16.76Q64.252 17.156 64.564 17.864Q64.876 18.572 64.876 19.508L64.876 19.58ZM75.124 24.86Q75.964 24.86 76.648 24.5Q77.332 24.14 77.728 23.384Q78.124 22.628 78.124 21.476L78.124 20.972L75.724 21.356Q74.308 21.572 73.612 22.052Q72.916 22.532 72.916 23.228Q72.916 23.756 73.24 24.128Q73.564 24.5 74.068 24.68Q74.572 24.86 75.124 24.86Z" />
      </g>
    </g>
    <g id="Cream-massage">
      <path d="M7.999 0L170.001 0Q172.456 0 174.908 0.120453Q177.36 0.240906 179.803 0.481523Q182.246 0.722139 184.674 1.08234Q187.102 1.44254 189.51 1.92145Q191.917 2.40037 194.299 2.99684Q196.68 3.59332 199.029 4.30592Q201.378 5.01853 203.69 5.84553Q206.001 6.67254 208.269 7.61197Q210.537 8.5514 212.756 9.60097Q214.975 10.6506 217.14 11.8078Q219.305 12.965 221.411 14.227Q223.516 15.489 225.557 16.8529Q227.599 18.2167 229.57 19.6791Q231.542 21.1414 233.44 22.6987Q235.337 24.2561 237.156 25.9046Q238.975 27.5532 240.711 29.289Q242.447 31.0249 244.095 32.8438Q245.744 34.6627 247.301 36.5603Q248.859 38.4579 250.321 40.4297Q251.783 42.4014 253.147 44.4425Q254.511 46.4837 255.773 48.5892Q257.035 50.6948 258.192 52.8598Q259.349 55.0248 260.399 57.2439Q261.449 59.4631 262.388 61.731Q263.327 63.999 264.154 66.3103Q264.981 68.6217 265.694 70.9708Q266.407 73.3199 267.003 75.7012Q267.6 78.0825 268.079 80.4902Q268.557 82.8978 268.918 85.3261Q269.278 87.7544 269.518 90.1974Q269.759 92.6404 269.88 95.0923Q270 97.5442 270 99.999L270 262.001Q270 262.197 269.99 262.393Q269.981 262.59 269.961 262.785Q269.942 262.98 269.913 263.175Q269.885 263.369 269.846 263.561Q269.808 263.754 269.76 263.945Q269.713 264.135 269.656 264.323Q269.599 264.511 269.532 264.696Q269.466 264.881 269.391 265.062Q269.316 265.243 269.232 265.421Q269.148 265.598 269.055 265.772Q268.963 265.945 268.862 266.113Q268.761 266.282 268.652 266.445Q268.543 266.608 268.426 266.766Q268.309 266.924 268.184 267.075Q268.06 267.227 267.928 267.373Q267.796 267.518 267.657 267.657Q267.518 267.796 267.373 267.928Q267.227 268.06 267.075 268.184Q266.924 268.309 266.766 268.426Q266.608 268.543 266.445 268.652Q266.282 268.761 266.113 268.862Q265.945 268.963 265.772 269.055Q265.598 269.148 265.421 269.232Q265.243 269.316 265.062 269.391Q264.881 269.466 264.696 269.532Q264.511 269.599 264.323 269.656Q264.135 269.713 263.945 269.76Q263.754 269.808 263.561 269.846Q263.369 269.885 263.175 269.913Q262.98 269.942 262.785 269.961Q262.59 269.981 262.393 269.99Q262.197 270 262.001 270L99.999 270Q97.5442 270 95.0923 269.88Q92.6404 269.759 90.1974 269.518Q87.7544 269.278 85.3261 268.918Q82.8978 268.557 80.4902 268.079Q78.0825 267.6 75.7012 267.003Q73.32 266.407 70.9708 265.694Q68.6217 264.981 66.3103 264.154Q63.999 263.327 61.731 262.388Q59.4631 261.449 57.2439 260.399Q55.0248 259.349 52.8598 258.192Q50.6948 257.035 48.5892 255.773Q46.4837 254.511 44.4425 253.147Q42.4014 251.783 40.4297 250.321Q38.4579 248.859 36.5603 247.301Q34.6627 245.744 32.8438 244.095Q31.0249 242.447 29.289 240.711Q27.5532 238.975 25.9046 237.156Q24.2561 235.337 22.6987 233.44Q21.1414 231.542 19.679 229.57Q18.2167 227.599 16.8529 225.557Q15.489 223.516 14.227 221.411Q12.965 219.305 11.8078 217.14Q10.6506 214.975 9.60097 212.756Q8.5514 210.537 7.61197 208.269Q6.67254 206.001 5.84553 203.69Q5.01853 201.378 4.30592 199.029Q3.59332 196.68 2.99684 194.299Q2.40037 191.917 1.92145 189.51Q1.44254 187.102 1.08234 184.674Q0.722139 182.246 0.481523 179.803Q0.240906 177.36 0.120453 174.908Q0 172.456 0 170.001L0 7.999Q0 7.80264 0.00963514 7.60651Q0.0192703 7.41038 0.0385174 7.21496Q0.0577644 7.01954 0.0865771 6.8253Q0.11539 6.63106 0.153699 6.43847Q0.192007 6.24588 0.23972 6.0554Q0.287433 5.86492 0.344434 5.67701Q0.401436 5.4891 0.467589 5.30422Q0.533742 5.11933 0.608888 4.93791Q0.684033 4.7565 0.76799 4.57899Q0.851946 4.40148 0.944512 4.2283Q1.03708 4.05512 1.13803 3.88669Q1.23898 3.71826 1.34807 3.55499Q1.45717 3.39172 1.57414 3.234Q1.69112 3.07628 1.81569 2.92449Q1.94026 2.7727 2.07213 2.6272Q2.204 2.4817 2.34285 2.34285Q2.4817 2.204 2.6272 2.07213Q2.7727 1.94026 2.92449 1.81569Q3.07628 1.69112 3.234 1.57414Q3.39172 1.45717 3.55499 1.34807Q3.71826 1.23898 3.88669 1.13803Q4.05512 1.03708 4.2283 0.944512Q4.40148 0.851946 4.57899 0.76799Q4.7565 0.684033 4.93791 0.608888Q5.11933 0.533742 5.30422 0.467589Q5.4891 0.401436 5.67701 0.344434Q5.86492 0.287433 6.0554 0.23972Q6.24588 0.192007 6.43847 0.153699Q6.63106 0.11539 6.8253 0.0865771Q7.01954 0.0577644 7.21496 0.0385174Q7.41038 0.0192703 7.60651 0.00963514Q7.80264 0 7.999 0L7.999 0Z" id="Rectangle-Copy-13" fill="#F9FAFB" fill-rule="evenodd" stroke="#FFFFFF" stroke-width="16" filter="url(#filter_1)" />
      <g id="Serviceiconbody-cream" transform="translate(95 60)">
        <g id="Group" transform="translate(0 6)">
          <g id="Light">
            <path d="M78.6325 20.6061C78.6325 24.3995 75.5712 27.4747 71.7949 27.4747L6.83761 27.4747C3.0613 27.4747 3.79563e-16 24.3995 0 20.6061L0 1.71717C-1.89782e-16 0.768804 0.765325 0 1.7094 0L76.9231 0C77.8671 0 78.6325 0.768804 78.6325 1.71717L78.6325 20.6061Z" transform="translate(0.6837607 40.19899)" id="Shape" fill="none" fill-rule="evenodd" stroke="#FAB91C" stroke-width="2" stroke-linecap="round" stroke-linejoin="round" />
            <path d="M64.9573 10.303L64.9573 6.86869C64.9573 3.07522 61.896 0 58.1197 0L6.83761 0C3.0613 0 0 3.07522 0 6.86869L0 10.303" transform="translate(7.5213675 29.89596)" id="Shape" fill="none" fill-rule="evenodd" stroke="#FAB91C" stroke-width="2" stroke-linecap="round" stroke-linejoin="round" />
            <path d="M0 0L51.2821 0L51.2821 13.7374L0 13.7374L0 0Z" transform="translate(14.358974 47.067677)" id="Rectangle-path" fill="none" fill-rule="evenodd" stroke="#FAB91C" stroke-width="2" stroke-linecap="round" stroke-linejoin="round" />
            <path d="M0 29.568C0 29.568 0 10.6791 23.9316 10.6791C35.5556 10.6791 39.7709 5.71645 42.8752 0.795041C43.2081 0.269682 43.7981 -0.0334223 44.417 0.00293941C45.0359 0.0393011 45.5867 0.409429 45.8564 0.970193C51.2444 12.2039 50.7726 21.6209 44.4444 29.568" transform="translate(16.068377 0.32798925)" id="Shape" fill="none" fill-rule="evenodd" stroke="#FAB91C" stroke-width="2" stroke-linecap="round" stroke-linejoin="round" />
          </g>
        </g>
      </g>
      <g id="Cream-Massage" fill="#0F1C49" transform="translate(43 172)">
        <path d="M5.492 26.36Q7.04 27.14 9.272 27.14Q10.904 27.14 12.2 26.708Q13.496 26.276 14.408 25.52Q15.32 24.764 15.824 23.756Q16.328 22.748 16.352 21.572Q16.376 21.356 16.22 21.212Q16.064 21.068 15.848 21.068L13.568 21.068Q13.304 21.068 13.136 21.188Q12.968 21.308 12.896 21.644Q12.536 23.204 11.588 23.792Q10.64 24.38 9.248 24.38Q7.64 24.38 6.68 23.48Q5.72 22.58 5.648 20.516Q5.576 18.452 5.648 16.484Q5.72 14.42 6.68 13.52Q7.64 12.62 9.248 12.62Q10.64 12.62 11.576 13.196Q12.512 13.772 12.896 15.356Q12.968 15.668 13.136 15.8Q13.304 15.932 13.568 15.932L15.848 15.932Q16.064 15.932 16.22 15.788Q16.376 15.644 16.352 15.428Q16.328 14.252 15.824 13.244Q15.32 12.236 14.408 11.48Q13.496 10.724 12.2 10.292Q10.904 9.86 9.272 9.86Q7.064 9.86 5.516 10.64Q3.968 11.42 3.14 12.884Q2.312 14.348 2.216 16.364Q2.192 17.396 2.192 18.524Q2.192 19.652 2.216 20.636Q2.312 22.676 3.128 24.128Q3.944 25.58 5.492 26.36ZM84.08 26.732C84.192 26.844 84.336 26.9 84.512 26.9L86.528 26.9Q86.768 26.9 86.936 26.732Q87.104 26.564 87.104 26.324L87.104 15.932L90.464 22.34Q90.584 22.556 90.764 22.712Q90.944 22.868 91.28 22.868L92.264 22.868Q92.576 22.868 92.768 22.712Q92.96 22.556 93.08 22.34L96.44 15.932L96.44 26.324Q96.44 26.564 96.596 26.732C96.7 26.844 96.84 26.9 97.016 26.9L99.032 26.9C99.208 26.9 99.352 26.844 99.464 26.732Q99.632 26.564 99.632 26.324L99.632 10.7Q99.632 10.436 99.464 10.268Q99.296 10.1 99.032 10.1L97.16 10.1Q96.824 10.1 96.656 10.28Q96.488 10.46 96.44 10.556L91.76 19.196L87.128 10.556Q87.08 10.46 86.912 10.28Q86.744 10.1 86.408 10.1L84.512 10.1Q84.248 10.1 84.08 10.268Q83.912 10.436 83.912 10.7L83.912 26.324Q83.912 26.564 84.08 26.732ZM57.056 26.9C56.896 26.9 56.76 26.844 56.648 26.732Q56.48 26.564 56.48 26.324L56.48 14.996Q56.48 14.756 56.648 14.588Q56.816 14.42 57.056 14.42L58.928 14.42Q59.168 14.42 59.336 14.588Q59.504 14.756 59.504 14.996L59.504 15.812Q60.008 15.14 60.86 14.672Q61.712 14.204 62.888 14.18Q65.624 14.132 66.704 16.316Q67.256 15.356 68.3 14.768Q69.344 14.18 70.616 14.18Q71.864 14.18 72.884 14.756Q73.904 15.332 74.492 16.496Q75.08 17.66 75.08 19.436L75.08 26.324Q75.08 26.564 74.912 26.732C74.8 26.844 74.664 26.9 74.504 26.9L72.536 26.9C72.376 26.9 72.24 26.844 72.128 26.732Q71.96 26.564 71.96 26.324L71.96 19.628Q71.96 18.548 71.648 17.912Q71.336 17.276 70.808 17.012Q70.28 16.748 69.632 16.748Q69.104 16.748 68.576 17.012Q68.048 17.276 67.712 17.912Q67.376 18.548 67.376 19.628L67.376 26.324Q67.376 26.564 67.208 26.732C67.096 26.844 66.96 26.9 66.8 26.9L64.832 26.9Q64.592 26.9 64.424 26.732Q64.256 26.564 64.256 26.324L64.256 19.628Q64.256 18.548 63.92 17.912Q63.584 17.276 63.056 17.012Q62.528 16.748 61.928 16.748Q61.376 16.748 60.848 17.024Q60.32 17.3 59.984 17.924Q59.648 18.548 59.648 19.628L59.648 26.324Q59.648 26.564 59.48 26.732C59.368 26.844 59.232 26.9 59.072 26.9L57.056 26.9ZM34.304 27.14Q31.64 27.14 30.08 25.604Q28.52 24.068 28.4 21.236Q28.376 20.996 28.376 20.624Q28.376 20.252 28.4 20.036Q28.496 18.212 29.228 16.904Q29.96 15.596 31.256 14.888Q32.552 14.18 34.304 14.18Q36.248 14.18 37.568 14.984Q38.888 15.788 39.56 17.216Q40.232 18.644 40.232 20.516L40.232 21.02Q40.232 21.26 40.064 21.428Q39.896 21.596 39.632 21.596L31.664 21.596L31.664 21.788Q31.688 22.628 31.988 23.336Q32.288 24.044 32.876 24.476Q33.464 24.908 34.28 24.908Q34.952 24.908 35.408 24.704Q35.864 24.5 36.152 24.236Q36.44 23.972 36.56 23.804Q36.776 23.516 36.908 23.456Q37.04 23.396 37.304 23.396L39.368 23.396Q39.608 23.396 39.764 23.54Q39.92 23.684 39.896 23.9Q39.872 24.284 39.5 24.836Q39.128 25.388 38.432 25.916Q37.736 26.444 36.692 26.792Q35.648 27.14 34.304 27.14ZM44.144 26.648Q45.152 27.14 46.4 27.14Q47.432 27.14 48.188 26.888Q48.944 26.636 49.472 26.228Q50 25.82 50.312 25.388L50.312 26.324Q50.312 26.564 50.468 26.732Q50.624 26.9 50.888 26.9L52.832 26.9C52.992 26.9 53.128 26.844 53.24 26.732Q53.408 26.564 53.408 26.324L53.408 18.788Q53.408 17.852 53.12 17.012Q52.832 16.172 52.208 15.548Q51.584 14.924 50.54 14.552Q49.496 14.18 47.984 14.18Q46.592 14.18 45.608 14.54Q44.624 14.9 44.012 15.416Q43.4 15.932 43.1 16.484Q42.8 17.036 42.776 17.42Q42.776 17.66 42.908 17.804Q43.04 17.948 43.304 17.948L45.2 17.948Q45.56 17.948 45.752 17.636Q46.016 17.06 46.556 16.712Q47.096 16.364 47.96 16.364Q49.184 16.364 49.688 16.916Q50.192 17.468 50.192 18.476L50.192 18.98L46.904 19.46Q44.696 19.796 43.328 20.792Q41.96 21.788 41.96 23.468Q41.96 24.5 42.548 25.328Q43.136 26.156 44.144 26.648ZM106.712 27.14Q105.464 27.14 104.456 26.648Q103.448 26.156 102.86 25.328Q102.272 24.5 102.272 23.468Q102.272 21.788 103.64 20.792Q105.008 19.796 107.216 19.46L110.504 18.98L110.504 18.476Q110.504 17.468 110 16.916Q109.496 16.364 108.272 16.364Q107.408 16.364 106.868 16.712Q106.328 17.06 106.064 17.636Q105.872 17.948 105.512 17.948L103.616 17.948Q103.352 17.948 103.22 17.804Q103.088 17.66 103.088 17.42Q103.112 17.036 103.412 16.484Q103.712 15.932 104.324 15.416Q104.936 14.9 105.92 14.54Q106.904 14.18 108.296 14.18Q109.808 14.18 110.852 14.552Q111.896 14.924 112.52 15.548Q113.144 16.172 113.432 17.012Q113.72 17.852 113.72 18.788L113.72 26.324Q113.72 26.564 113.552 26.732Q113.384 26.9 113.144 26.9L111.2 26.9C111.024 26.9 110.884 26.844 110.78 26.732Q110.624 26.564 110.624 26.324L110.624 25.388Q110.312 25.82 109.784 26.228Q109.256 26.636 108.5 26.888Q107.744 27.14 106.712 27.14ZM119.06 26.804Q120.08 27.14 121.52 27.14Q123.344 27.14 124.58 26.648Q125.816 26.156 126.452 25.292Q127.088 24.428 127.088 23.348Q127.088 22.46 126.692 21.728Q126.296 20.996 125.348 20.432Q124.4 19.868 122.792 19.58Q121.376 19.292 120.68 19.028Q119.984 18.764 119.756 18.464Q119.528 18.164 119.528 17.756Q119.528 17.156 120.008 16.76Q120.488 16.364 121.4 16.364Q122.12 16.364 122.564 16.556Q123.008 16.748 123.32 17.024Q123.632 17.3 123.896 17.54Q123.992 17.612 124.088 17.66Q124.184 17.708 124.304 17.708L126.08 17.708Q126.296 17.708 126.464 17.552Q126.632 17.396 126.608 17.132Q126.584 16.772 126.248 16.28Q125.912 15.788 125.276 15.308Q124.64 14.828 123.68 14.504Q122.72 14.18 121.424 14.18Q119.768 14.18 118.652 14.732Q117.536 15.284 116.972 16.136Q116.408 16.988 116.408 17.924Q116.408 18.884 116.84 19.604Q117.272 20.324 118.16 20.804Q119.048 21.284 120.392 21.596Q121.76 21.884 122.504 22.136Q123.248 22.388 123.524 22.7Q123.8 23.012 123.8 23.516Q123.8 24.212 123.164 24.584Q122.528 24.956 121.592 24.956Q120.872 24.956 120.392 24.752Q119.912 24.548 119.564 24.26Q119.216 23.972 118.904 23.708Q118.784 23.588 118.712 23.564Q118.64 23.54 118.544 23.54L116.648 23.54Q116.432 23.54 116.252 23.696Q116.072 23.852 116.096 24.116Q116.12 24.452 116.432 24.956Q116.744 25.46 117.392 25.964Q118.04 26.468 119.06 26.804ZM134.288 27.14Q132.848 27.14 131.828 26.804Q130.808 26.468 130.16 25.964Q129.512 25.46 129.2 24.956Q128.888 24.452 128.864 24.116Q128.84 23.852 129.02 23.696Q129.2 23.54 129.416 23.54L131.312 23.54Q131.408 23.54 131.48 23.564Q131.552 23.588 131.672 23.708Q131.984 23.972 132.332 24.26Q132.68 24.548 133.16 24.752Q133.64 24.956 134.36 24.956Q135.296 24.956 135.932 24.584Q136.568 24.212 136.568 23.516Q136.568 23.012 136.292 22.7Q136.016 22.388 135.272 22.136Q134.528 21.884 133.16 21.596Q131.816 21.284 130.928 20.804Q130.04 20.324 129.608 19.604Q129.176 18.884 129.176 17.924Q129.176 16.988 129.74 16.136Q130.304 15.284 131.42 14.732Q132.536 14.18 134.192 14.18Q135.488 14.18 136.448 14.504Q137.408 14.828 138.044 15.308Q138.68 15.788 139.016 16.28Q139.352 16.772 139.376 17.132Q139.4 17.396 139.232 17.552Q139.064 17.708 138.848 17.708L137.072 17.708Q136.952 17.708 136.856 17.66Q136.76 17.612 136.664 17.54Q136.4 17.3 136.088 17.024Q135.776 16.748 135.332 16.556Q134.888 16.364 134.168 16.364Q133.256 16.364 132.776 16.76Q132.296 17.156 132.296 17.756Q132.296 18.164 132.524 18.464Q132.752 18.764 133.448 19.028Q134.144 19.292 135.56 19.58Q137.168 19.868 138.116 20.432Q139.064 20.996 139.46 21.728Q139.856 22.46 139.856 23.348Q139.856 24.428 139.22 25.292Q138.584 26.156 137.348 26.648Q136.112 27.14 134.288 27.14ZM143.696 26.648Q144.704 27.14 145.952 27.14Q146.984 27.14 147.74 26.888Q148.496 26.636 149.024 26.228Q149.552 25.82 149.864 25.388L149.864 26.324Q149.864 26.564 150.02 26.732Q150.176 26.9 150.44 26.9L152.384 26.9Q152.624 26.9 152.792 26.732Q152.96 26.564 152.96 26.324L152.96 18.788Q152.96 17.852 152.672 17.012Q152.384 16.172 151.76 15.548Q151.136 14.924 150.092 14.552Q149.048 14.18 147.536 14.18Q146.144 14.18 145.16 14.54Q144.176 14.9 143.564 15.416Q142.952 15.932 142.652 16.484Q142.352 17.036 142.328 17.42Q142.328 17.66 142.46 17.804Q142.592 17.948 142.856 17.948L144.752 17.948Q145.112 17.948 145.304 17.636Q145.568 17.06 146.108 16.712Q146.648 16.364 147.512 16.364Q148.736 16.364 149.24 16.916Q149.744 17.468 149.744 18.476L149.744 18.98L146.456 19.46Q144.248 19.796 142.88 20.792Q141.512 21.788 141.512 23.468Q141.512 24.5 142.1 25.328Q142.688 26.156 143.696 26.648ZM161.672 32.18Q159.92 32.18 158.792 31.724Q157.664 31.268 157.016 30.62Q156.368 29.972 156.092 29.336Q155.816 28.7 155.792 28.34Q155.768 28.1 155.948 27.92Q156.128 27.74 156.368 27.74L158.456 27.74Q158.696 27.74 158.84 27.848Q158.984 27.956 159.08 28.244Q159.224 28.556 159.464 28.916Q159.704 29.276 160.196 29.528Q160.688 29.78 161.552 29.78Q162.464 29.78 163.088 29.516Q163.712 29.252 164.036 28.628Q164.36 28.004 164.36 26.9L164.36 25.268Q163.784 25.964 162.884 26.396Q161.984 26.828 160.664 26.828Q159.392 26.828 158.444 26.408Q157.496 25.988 156.872 25.232Q156.248 24.476 155.924 23.444Q155.6 22.412 155.552 21.164Q155.528 20.516 155.552 19.868Q155.6 18.668 155.924 17.636Q156.248 16.604 156.872 15.824Q157.496 15.044 158.444 14.612Q159.392 14.18 160.664 14.18Q162.032 14.18 162.968 14.696Q163.904 15.212 164.504 15.98L164.504 15.02Q164.504 14.756 164.672 14.588Q164.84 14.42 165.08 14.42L167.024 14.42Q167.264 14.42 167.432 14.588Q167.6 14.756 167.6 15.02L167.624 26.588Q167.624 28.316 166.976 29.564Q166.328 30.812 165.02 31.496Q163.712 32.18 161.672 32.18ZM171.968 25.604Q173.528 27.14 176.192 27.14Q177.536 27.14 178.58 26.792Q179.624 26.444 180.32 25.916Q181.016 25.388 181.388 24.836Q181.76 24.284 181.784 23.9Q181.808 23.684 181.652 23.54Q181.496 23.396 181.256 23.396L179.192 23.396Q178.928 23.396 178.796 23.456Q178.664 23.516 178.448 23.804Q178.328 23.972 178.04 24.236Q177.752 24.5 177.296 24.704Q176.84 24.908 176.168 24.908Q175.352 24.908 174.764 24.476Q174.176 24.044 173.876 23.336Q173.576 22.628 173.552 21.788L173.552 21.596L181.52 21.596Q181.784 21.596 181.952 21.428Q182.12 21.26 182.12 21.02L182.12 20.516Q182.12 18.644 181.448 17.216Q180.776 15.788 179.456 14.984Q178.136 14.18 176.192 14.18Q174.44 14.18 173.144 14.888Q171.848 15.596 171.116 16.904Q170.384 18.212 170.288 20.036Q170.264 20.252 170.264 20.624Q170.264 20.996 170.288 21.236Q170.408 24.068 171.968 25.604ZM19.088 26.732Q19.256 26.9 19.496 26.9L21.584 26.9C21.76 26.9 21.904 26.844 22.016 26.732Q22.184 26.564 22.184 26.324L22.184 19.724Q22.184 18.572 22.82 17.936Q23.456 17.3 24.608 17.3L26.48 17.3Q26.744 17.3 26.9 17.132Q27.056 16.964 27.056 16.724L27.056 14.996Q27.056 14.756 26.9 14.588Q26.744 14.42 26.48 14.42L25.496 14.42Q24.344 14.42 23.468 14.828Q22.592 15.236 22.04 16.004L22.04 15.02Q22.04 14.756 21.86 14.588Q21.68 14.42 21.44 14.42L19.496 14.42Q19.256 14.42 19.088 14.588Q18.92 14.756 18.92 15.02L18.92 26.324Q18.92 26.564 19.088 26.732ZM31.664 19.58L36.968 19.58L36.968 19.508Q36.968 18.572 36.656 17.864Q36.344 17.156 35.744 16.76Q35.144 16.364 34.304 16.364Q33.464 16.364 32.864 16.76Q32.264 17.156 31.964 17.864Q31.664 18.572 31.664 19.508L31.664 19.58ZM178.856 19.58L173.552 19.58L173.552 19.508Q173.552 18.572 173.852 17.864Q174.152 17.156 174.752 16.76Q175.352 16.364 176.192 16.364Q177.032 16.364 177.632 16.76Q178.232 17.156 178.544 17.864Q178.856 18.572 178.856 19.508L178.856 19.58ZM161.552 24.284Q162.536 24.284 163.136 23.852Q163.736 23.42 164.024 22.724Q164.312 22.028 164.36 21.308Q164.384 20.996 164.384 20.516Q164.384 20.036 164.36 19.748Q164.312 19.004 164.024 18.32Q163.736 17.636 163.136 17.192Q162.536 16.748 161.552 16.748Q160.568 16.748 159.968 17.192Q159.368 17.636 159.116 18.356Q158.864 19.076 158.816 19.94Q158.768 20.516 158.816 21.116Q158.864 21.956 159.116 22.688Q159.368 23.42 159.968 23.852Q160.568 24.284 161.552 24.284ZM48.74 24.5Q48.056 24.86 47.216 24.86Q46.664 24.86 46.16 24.68Q45.656 24.5 45.332 24.128Q45.008 23.756 45.008 23.228Q45.008 22.532 45.704 22.052Q46.4 21.572 47.816 21.356L50.216 20.972L50.216 21.476Q50.216 22.628 49.82 23.384Q49.424 24.14 48.74 24.5ZM107.528 24.86Q108.368 24.86 109.052 24.5Q109.736 24.14 110.132 23.384Q110.528 22.628 110.528 21.476L110.528 20.972L108.128 21.356Q106.712 21.572 106.016 22.052Q105.32 22.532 105.32 23.228Q105.32 23.756 105.644 24.128Q105.968 24.5 106.472 24.68Q106.976 24.86 107.528 24.86ZM148.292 24.5Q147.608 24.86 146.768 24.86Q146.216 24.86 145.712 24.68Q145.208 24.5 144.884 24.128Q144.56 23.756 144.56 23.228Q144.56 22.532 145.256 22.052Q145.952 21.572 147.368 21.356L149.768 20.972L149.768 21.476Q149.768 22.628 149.372 23.384Q148.976 24.14 148.292 24.5Z" />
      </g>
    </g>
    <g id="Sunlotion" transform="translate(0 300)">
      <path d="M99.999 0L262.001 0Q262.197 0 262.393 0.00963514Q262.59 0.0192703 262.785 0.0385174Q262.98 0.0577644 263.175 0.0865771Q263.369 0.11539 263.561 0.153699Q263.754 0.192007 263.945 0.23972Q264.135 0.287433 264.323 0.344434Q264.511 0.401436 264.696 0.467589Q264.881 0.533742 265.062 0.608888Q265.243 0.684033 265.421 0.76799Q265.598 0.851946 265.772 0.944512Q265.945 1.03708 266.113 1.13803Q266.282 1.23898 266.445 1.34807Q266.608 1.45717 266.766 1.57414Q266.924 1.69112 267.075 1.81569Q267.227 1.94026 267.373 2.07213Q267.518 2.204 267.657 2.34285Q267.796 2.4817 267.928 2.6272Q268.06 2.7727 268.184 2.92449Q268.309 3.07628 268.426 3.234Q268.543 3.39172 268.652 3.55499Q268.761 3.71826 268.862 3.88669Q268.963 4.05512 269.055 4.2283Q269.148 4.40148 269.232 4.57899Q269.316 4.7565 269.391 4.93791Q269.466 5.11933 269.532 5.30422Q269.599 5.4891 269.656 5.67701Q269.713 5.86492 269.76 6.0554Q269.808 6.24588 269.846 6.43847Q269.885 6.63106 269.913 6.8253Q269.942 7.01954 269.961 7.21496Q269.981 7.41038 269.99 7.60651Q270 7.80264 270 7.999L270 170.001Q270 172.456 269.88 174.908Q269.759 177.36 269.518 179.803Q269.278 182.246 268.918 184.674Q268.557 187.102 268.079 189.51Q267.6 191.917 267.003 194.299Q266.407 196.68 265.694 199.029Q264.981 201.378 264.154 203.69Q263.327 206.001 262.388 208.269Q261.449 210.537 260.399 212.756Q259.349 214.975 258.192 217.14Q257.035 219.305 255.773 221.411Q254.511 223.516 253.147 225.557Q251.783 227.599 250.321 229.57Q248.859 231.542 247.301 233.44Q245.744 235.337 244.095 237.156Q242.447 238.975 240.711 240.711Q238.975 242.447 237.156 244.095Q235.337 245.744 233.44 247.301Q231.542 248.859 229.57 250.321Q227.599 251.783 225.557 253.147Q223.516 254.511 221.411 255.773Q219.305 257.035 217.14 258.192Q214.975 259.349 212.756 260.399Q210.537 261.449 208.269 262.388Q206.001 263.327 203.69 264.154Q201.378 264.981 199.029 265.694Q196.68 266.407 194.299 267.003Q191.917 267.6 189.51 268.079Q187.102 268.557 184.674 268.918Q182.246 269.278 179.803 269.518Q177.36 269.759 174.908 269.88Q172.456 270 170.001 270L7.999 270Q7.80264 270 7.60651 269.99Q7.41038 269.981 7.21496 269.961Q7.01954 269.942 6.8253 269.913Q6.63106 269.885 6.43847 269.846Q6.24588 269.808 6.0554 269.76Q5.86492 269.713 5.67701 269.656Q5.4891 269.599 5.30422 269.532Q5.11933 269.466 4.93791 269.391Q4.7565 269.316 4.57899 269.232Q4.40148 269.148 4.2283 269.055Q4.05512 268.963 3.88669 268.862Q3.71826 268.761 3.55499 268.652Q3.39172 268.543 3.234 268.426Q3.07628 268.309 2.92449 268.184Q2.7727 268.06 2.6272 267.928Q2.4817 267.796 2.34285 267.657Q2.204 267.518 2.07213 267.373Q1.94026 267.227 1.81569 267.075Q1.69112 266.924 1.57414 266.766Q1.45717 266.608 1.34807 266.445Q1.23898 266.282 1.13803 266.113Q1.03708 265.945 0.944512 265.772Q0.851946 265.598 0.76799 265.421Q0.684033 265.243 0.608888 265.062Q0.533742 264.881 0.467589 264.696Q0.401436 264.511 0.344434 264.323Q0.287433 264.135 0.23972 263.945Q0.192007 263.754 0.153699 263.561Q0.11539 263.369 0.0865771 263.175Q0.0577644 262.98 0.0385174 262.785Q0.0192703 262.59 0.00963514 262.393Q0 262.197 0 262.001L0 99.999Q0 97.5442 0.120453 95.0923Q0.240906 92.6404 0.481523 90.1974Q0.722139 87.7544 1.08234 85.3261Q1.44254 82.8978 1.92145 80.4902Q2.40037 78.0825 2.99684 75.7012Q3.59332 73.32 4.30592 70.9708Q5.01853 68.6217 5.84553 66.3103Q6.67254 63.999 7.61197 61.731Q8.5514 59.4631 9.60097 57.2439Q10.6506 55.0248 11.8078 52.8598Q12.965 50.6948 14.227 48.5892Q15.489 46.4837 16.8529 44.4425Q18.2167 42.4014 19.6791 40.4297Q21.1414 38.4579 22.6987 36.5603Q24.2561 34.6627 25.9046 32.8438Q27.5532 31.0249 29.289 29.289Q31.0249 27.5532 32.8438 25.9046Q34.6627 24.2561 36.5603 22.6987Q38.4579 21.1414 40.4297 19.679Q42.4014 18.2167 44.4425 16.8529Q46.4837 15.489 48.5892 14.227Q50.6948 12.965 52.8598 11.8078Q55.0248 10.6506 57.2439 9.60097Q59.4631 8.5514 61.731 7.61197Q63.999 6.67254 66.3103 5.84553Q68.6217 5.01853 70.9708 4.30592Q73.3199 3.59332 75.7012 2.99684Q78.0825 2.40037 80.4902 1.92145Q82.8978 1.44254 85.3261 1.08234Q87.7544 0.722139 90.1974 0.481523Q92.6404 0.240906 95.0923 0.120453Q97.5442 0 99.999 0L99.999 0Z" id="Rectangle-Copy-13" fill="#F9FAFB" fill-rule="evenodd" stroke="#FFFFFF" stroke-width="16" filter="url(#filter_1)" />
      <g id="Serviceiconbody-cream" transform="translate(95 60)">
        <g id="Group">
          <g id="Light">
            <path d="M0 1.07045C5.10413 -1.07686 10.9994 0.0658502 14.9316 3.9647C18.8638 7.86355 20.0566 13.7489 17.9528 18.8711C15.849 23.9933 10.8639 27.3413 5.3265 27.3508" transform="translate(44.929916 14.358607)" id="Shape" fill="none" fill-rule="evenodd" stroke="#FAB91C" stroke-width="2" stroke-linecap="round" stroke-linejoin="round" />
            <path d="M0 0L0 5.12821" transform="translate(51.965813 0.6837607)" id="Shape" fill="none" fill-rule="evenodd" stroke="#FAB91C" stroke-width="2" stroke-linecap="round" stroke-linejoin="round" />
            <path d="M4.83761 0L0 4.83419" transform="translate(65.96923 9.193162)" id="Shape" fill="none" fill-rule="evenodd" stroke="#FAB91C" stroke-width="2" stroke-linecap="round" stroke-linejoin="round" />
            <path d="M6.83761 0L0 0" transform="translate(72.47863 28.034187)" id="Shape" fill="none" fill-rule="evenodd" stroke="#FAB91C" stroke-width="2" stroke-linecap="round" stroke-linejoin="round" />
            <path d="M4.83761 4.83419L0 0" transform="translate(65.96923 43.712822)" id="Shape" fill="none" fill-rule="evenodd" stroke="#FAB91C" stroke-width="2" stroke-linecap="round" stroke-linejoin="round" />
            <path d="M0 5.12821L0 0" transform="translate(51.965813 50.25641)" id="Shape" fill="none" fill-rule="evenodd" stroke="#FAB91C" stroke-width="2" stroke-linecap="round" stroke-linejoin="round" />
            <path d="M13.6752 8.54701L10.6872 1.07351C10.4269 0.424045 9.79711 -0.00123339 9.09744 2.68732e-06L4.57778 2.68732e-06C3.8781 -0.00123339 3.24831 0.424045 2.98803 1.07351L0 8.54701" transform="translate(14.358974 16.068373)" id="Shape" fill="none" fill-rule="evenodd" stroke="#FAB91C" stroke-width="2" stroke-linecap="round" stroke-linejoin="round" />
            <path d="M0 0L0 11.9658" transform="translate(21.19658 4.1025643)" id="Shape" fill="none" fill-rule="evenodd" stroke="#FAB91C" stroke-width="2" stroke-linecap="round" stroke-linejoin="round" />
            <path d="M30.9846 0L8.66325 0C7.64294 0.000703251 6.67627 0.457083 6.02735 1.24444L0 8.54701" transform="translate(2.1777778 4.1025643)" id="Shape" fill="none" fill-rule="evenodd" stroke="#FAB91C" stroke-width="2" stroke-linecap="round" stroke-linejoin="round" />
            <path d="M0.499 0L26.8514 0Q26.9006 0 26.9488 0.00958814Q26.997 0.0191763 27.0424 0.0379841Q27.0878 0.0567919 27.1287 0.0840967Q27.1695 0.111401 27.2043 0.146154Q27.239 0.180906 27.2663 0.22177Q27.2936 0.262635 27.3124 0.308041Q27.3312 0.353447 27.3408 0.40165Q27.3504 0.449853 27.3504 0.499L27.3504 16.595Q27.3504 16.6442 27.3408 16.6924Q27.3312 16.7406 27.3124 16.786Q27.2936 16.8314 27.2663 16.8722Q27.239 16.9131 27.2043 16.9479Q27.1695 16.9826 27.1287 17.0099Q27.0878 17.0372 27.0424 17.056Q26.997 17.0748 26.9488 17.0844Q26.9006 17.094 26.8514 17.094L0.499 17.094Q0.449853 17.094 0.40165 17.0844Q0.353447 17.0748 0.308041 17.056Q0.262635 17.0372 0.22177 17.0099Q0.180906 16.9826 0.146154 16.9479Q0.111401 16.9131 0.0840967 16.8722Q0.0567919 16.8314 0.0379841 16.786Q0.0191763 16.7406 0.00958814 16.6924Q0 16.6442 0 16.595L0 0.499Q0 0.449853 0.00958814 0.40165Q0.0191763 0.353447 0.0379841 0.308041Q0.0567919 0.262635 0.0840967 0.22177Q0.111401 0.180906 0.146154 0.146154Q0.180906 0.111401 0.22177 0.0840967Q0.262635 0.0567919 0.308041 0.0379841Q0.353447 0.0191763 0.40165 0.00958814Q0.449853 0 0.499 0Z" transform="translate(7.5213675 45.128204)" id="Rectangle-path" fill="none" fill-rule="evenodd" stroke="#FAB91C" stroke-width="2" stroke-linecap="round" stroke-linejoin="round" />
            <path d="M6.83761 0L34.188 0C37.9643 0 41.0256 3.0613 41.0256 6.83761L41.0256 47.8632C41.0256 51.6396 37.9643 54.7009 34.188 54.7009L6.83761 54.7009C3.0613 54.7009 3.79563e-16 51.6396 0 47.8632L0 6.83761C-3.79563e-16 3.0613 3.0613 0 6.83761 0Z" transform="translate(0.6837607 24.615385)" id="Shape" fill="none" fill-rule="evenodd" stroke="#FAB91C" stroke-width="2" stroke-linecap="round" stroke-linejoin="round" />
          </g>
        </g>
      </g>
      <g id="Sun-lotion" fill="#0F1C49" transform="translate(68 172)">
        <path d="M91.72 12.188Q91.888 12.356 92.128 12.356L94.312 12.356Q94.576 12.356 94.744 12.188Q94.912 12.02 94.912 11.78L94.912 10.052Q94.912 9.812 94.744 9.644Q94.576 9.476 94.312 9.476L92.128 9.476Q91.888 9.476 91.72 9.644Q91.552 9.812 91.552 10.052L91.552 11.78Q91.552 12.02 91.72 12.188ZM16.12 27.14Q13.888 27.14 12.388 26.48Q10.888 25.82 10.108 24.752Q9.328 23.684 9.28 22.508Q9.28 22.292 9.424 22.148Q9.568 22.004 9.784 22.004L11.92 22.004Q12.232 22.004 12.388 22.136Q12.544 22.268 12.664 22.46Q12.808 22.916 13.216 23.36Q13.624 23.804 14.332 24.092Q15.04 24.38 16.12 24.38Q17.848 24.38 18.7 23.804Q19.552 23.228 19.552 22.244Q19.552 21.548 19.096 21.128Q18.64 20.708 17.692 20.36Q16.744 20.012 15.184 19.628Q13.384 19.196 12.172 18.584Q10.96 17.972 10.348 17.036Q9.736 16.1 9.736 14.66Q9.736 13.268 10.492 12.188Q11.248 11.108 12.652 10.484Q14.056 9.86 16 9.86Q17.56 9.86 18.76 10.28Q19.96 10.7 20.752 11.384Q21.544 12.068 21.964 12.848Q22.384 13.628 22.408 14.372Q22.408 14.564 22.276 14.72Q22.144 14.876 21.904 14.876L19.672 14.876Q19.48 14.876 19.288 14.78Q19.096 14.684 18.976 14.42Q18.832 13.676 18.04 13.148Q17.248 12.62 16 12.62Q14.704 12.62 13.912 13.1Q13.12 13.58 13.12 14.588Q13.12 15.26 13.516 15.704Q13.912 16.148 14.788 16.484Q15.664 16.82 17.104 17.204Q19.144 17.66 20.44 18.26Q21.736 18.86 22.336 19.784Q22.936 20.708 22.936 22.124Q22.936 23.708 22.084 24.824Q21.232 25.94 19.696 26.54Q18.16 27.14 16.12 27.14ZM61.384 26.9C61.224 26.9 61.088 26.844 60.976 26.732Q60.808 26.564 60.808 26.324L60.808 10.436Q60.808 10.196 60.976 10.028Q61.144 9.86 61.384 9.86L63.376 9.86Q63.616 9.86 63.784 10.028Q63.952 10.196 63.952 10.436L63.952 26.324Q63.952 26.564 63.784 26.732C63.672 26.844 63.536 26.9 63.376 26.9L61.384 26.9ZM86.992 26.9Q85.552 26.9 84.568 26.396Q83.584 25.892 83.104 24.896Q82.624 23.9 82.624 22.412L82.624 16.964L80.728 16.964Q80.488 16.964 80.32 16.796Q80.152 16.628 80.152 16.364L80.152 14.996Q80.152 14.756 80.32 14.588Q80.488 14.42 80.728 14.42L82.624 14.42L82.624 10.436Q82.624 10.196 82.78 10.028Q82.936 9.86 83.2 9.86L85.144 9.86Q85.384 9.86 85.552 10.028Q85.72 10.196 85.72 10.436L85.72 14.42L88.72 14.42Q88.96 14.42 89.128 14.588Q89.296 14.756 89.296 14.996L89.296 16.364Q89.296 16.628 89.128 16.796Q88.96 16.964 88.72 16.964L85.72 16.964L85.72 22.172Q85.72 23.156 86.068 23.708Q86.416 24.26 87.28 24.26L88.936 24.26Q89.176 24.26 89.344 24.428Q89.512 24.596 89.512 24.836L89.512 26.324Q89.512 26.564 89.344 26.732C89.232 26.844 89.096 26.9 88.936 26.9L86.992 26.9ZM40.48 26.732C40.592 26.844 40.728 26.9 40.888 26.9L43 26.9C43.16 26.9 43.296 26.844 43.408 26.732Q43.576 26.564 43.576 26.324L43.576 19.724Q43.576 18.332 44.32 17.54Q45.064 16.748 46.312 16.748Q47.608 16.748 48.292 17.54Q48.976 18.332 48.976 19.724L48.976 26.324Q48.976 26.564 49.144 26.732C49.256 26.844 49.392 26.9 49.552 26.9L51.664 26.9C51.824 26.9 51.96 26.844 52.072 26.732Q52.24 26.564 52.24 26.324L52.24 19.58Q52.24 17.9 51.652 16.7Q51.064 15.5 49.984 14.84Q48.904 14.18 47.44 14.18Q46 14.18 45.028 14.696Q44.056 15.212 43.432 15.98L43.432 14.996Q43.432 14.756 43.264 14.588Q43.096 14.42 42.856 14.42L40.888 14.42Q40.648 14.42 40.48 14.588Q40.312 14.756 40.312 14.996L40.312 26.324Q40.312 26.564 40.48 26.732ZM69.436 26.468Q70.744 27.14 72.664 27.14Q74.584 27.14 75.892 26.468Q77.2 25.796 77.884 24.572Q78.568 23.348 78.664 21.716Q78.688 21.284 78.688 20.66Q78.688 20.036 78.664 19.604Q78.568 17.948 77.86 16.736Q77.152 15.524 75.844 14.852Q74.536 14.18 72.664 14.18Q70.792 14.18 69.484 14.852Q68.176 15.524 67.468 16.736Q66.76 17.948 66.664 19.604Q66.64 20.036 66.64 20.66Q66.64 21.284 66.664 21.716Q66.76 23.348 67.444 24.572Q68.128 25.796 69.436 26.468ZM103.504 27.14Q101.584 27.14 100.276 26.468Q98.968 25.796 98.284 24.572Q97.6 23.348 97.504 21.716Q97.48 21.284 97.48 20.66Q97.48 20.036 97.504 19.604Q97.6 17.948 98.308 16.736Q99.016 15.524 100.324 14.852Q101.632 14.18 103.504 14.18Q105.376 14.18 106.684 14.852Q107.992 15.524 108.7 16.736Q109.408 17.948 109.504 19.604Q109.528 20.036 109.528 20.66Q109.528 21.284 109.504 21.716Q109.408 23.348 108.724 24.572Q108.04 25.796 106.732 26.468Q105.424 27.14 103.504 27.14ZM112.36 26.732Q112.528 26.9 112.768 26.9L114.88 26.9C115.04 26.9 115.176 26.844 115.288 26.732Q115.456 26.564 115.456 26.324L115.456 19.724Q115.456 18.332 116.2 17.54Q116.944 16.748 118.192 16.748Q119.488 16.748 120.172 17.54Q120.856 18.332 120.856 19.724L120.856 26.324Q120.856 26.564 121.024 26.732Q121.192 26.9 121.432 26.9L123.544 26.9C123.704 26.9 123.84 26.844 123.952 26.732Q124.12 26.564 124.12 26.324L124.12 19.58Q124.12 17.9 123.532 16.7Q122.944 15.5 121.864 14.84Q120.784 14.18 119.32 14.18Q117.88 14.18 116.908 14.696Q115.936 15.212 115.312 15.98L115.312 14.996Q115.312 14.756 115.144 14.588Q114.976 14.42 114.736 14.42L112.768 14.42Q112.528 14.42 112.36 14.588Q112.192 14.756 112.192 14.996L112.192 26.324Q112.192 26.564 112.36 26.732ZM30.04 27.14Q28.576 27.14 27.508 26.48Q26.44 25.82 25.864 24.608Q25.288 23.396 25.288 21.74L25.288 14.996Q25.288 14.756 25.456 14.588Q25.624 14.42 25.864 14.42L27.976 14.42Q28.24 14.42 28.396 14.588Q28.552 14.756 28.552 14.996L28.552 21.596Q28.552 24.572 31.168 24.572Q32.416 24.572 33.148 23.78Q33.88 22.988 33.88 21.596L33.88 14.996Q33.88 14.756 34.048 14.588Q34.216 14.42 34.456 14.42L36.568 14.42Q36.808 14.42 36.976 14.588Q37.144 14.756 37.144 14.996L37.144 26.324Q37.144 26.564 36.976 26.732C36.864 26.844 36.728 26.9 36.568 26.9L34.624 26.9C34.448 26.9 34.308 26.844 34.204 26.732Q34.048 26.564 34.048 26.324L34.048 25.34Q33.4 26.18 32.44 26.66Q31.48 27.14 30.04 27.14ZM91.816 26.732Q91.984 26.9 92.224 26.9L94.216 26.9Q94.48 26.9 94.636 26.732Q94.792 26.564 94.792 26.324L94.792 14.996Q94.792 14.756 94.636 14.588Q94.48 14.42 94.216 14.42L92.224 14.42Q91.984 14.42 91.816 14.588Q91.648 14.756 91.648 14.996L91.648 26.324Q91.648 26.564 91.816 26.732ZM74.632 23.96Q73.936 24.764 72.664 24.764Q71.392 24.764 70.696 23.96Q70 23.156 69.928 21.596Q69.904 21.236 69.904 20.66Q69.904 20.084 69.928 19.724Q70 18.164 70.696 17.36Q71.392 16.556 72.664 16.556Q73.936 16.556 74.632 17.36Q75.328 18.164 75.4 19.724Q75.424 20.084 75.424 20.66Q75.424 21.236 75.4 21.596Q75.328 23.156 74.632 23.96ZM103.504 24.764Q104.776 24.764 105.472 23.96Q106.168 23.156 106.24 21.596Q106.264 21.236 106.264 20.66Q106.264 20.084 106.24 19.724Q106.168 18.164 105.472 17.36Q104.776 16.556 103.504 16.556Q102.232 16.556 101.536 17.36Q100.84 18.164 100.768 19.724Q100.744 20.084 100.744 20.66Q100.744 21.236 100.768 21.596Q100.84 23.156 101.536 23.96Q102.232 24.764 103.504 24.764Z" />
      </g>
    </g>
  </g>
</svg>