<?xml version="1.0" encoding="utf-8"?>
<svg width="1170px" height="478px" viewBox="0 0 1170 478" version="1.1" xmlns:xlink="http://www.w3.org/1999/xlink" xmlns="http://www.w3.org/2000/svg">
  <path d="M99.999 0L1162 0Q1162.2 0 1162.39 0.00963514Q1162.59 0.0192703 1162.79 0.0385174Q1162.98 0.0577644 1163.17 0.0865771Q1163.37 0.11539 1163.56 0.153699Q1163.75 0.192007 1163.94 0.23972Q1164.14 0.287433 1164.32 0.344434Q1164.51 0.401436 1164.7 0.467589Q1164.88 0.533742 1165.06 0.608888Q1165.24 0.684033 1165.42 0.76799Q1165.6 0.851946 1165.77 0.944512Q1165.94 1.03708 1166.11 1.13803Q1166.28 1.23898 1166.44 1.34807Q1166.61 1.45717 1166.77 1.57414Q1166.92 1.69112 1167.08 1.81569Q1167.23 1.94026 1167.37 2.07213Q1167.52 2.204 1167.66 2.34285Q1167.8 2.4817 1167.93 2.6272Q1168.06 2.7727 1168.18 2.92449Q1168.31 3.07628 1168.43 3.234Q1168.54 3.39172 1168.65 3.55499Q1168.76 3.71826 1168.86 3.88669Q1168.96 4.05512 1169.06 4.2283Q1169.15 4.40148 1169.23 4.57899Q1169.32 4.7565 1169.39 4.93791Q1169.47 5.11933 1169.53 5.30422Q1169.6 5.4891 1169.66 5.67701Q1169.71 5.86492 1169.76 6.0554Q1169.81 6.24588 1169.85 6.43847Q1169.88 6.63106 1169.91 6.8253Q1169.94 7.01954 1169.96 7.21496Q1169.98 7.41038 1169.99 7.60651Q1170 7.80264 1170 7.999L1170 378.001Q1170 380.456 1169.88 382.908Q1169.76 385.36 1169.52 387.803Q1169.28 390.246 1168.92 392.674Q1168.56 395.102 1168.08 397.51Q1167.6 399.917 1167 402.299Q1166.41 404.68 1165.69 407.029Q1164.98 409.378 1164.15 411.69Q1163.33 414.001 1162.39 416.269Q1161.45 418.537 1160.4 420.756Q1159.35 422.975 1158.19 425.14Q1157.03 427.305 1155.77 429.411Q1154.51 431.516 1153.15 433.557Q1151.78 435.599 1150.32 437.57Q1148.86 439.542 1147.3 441.44Q1145.74 443.337 1144.1 445.156Q1142.45 446.975 1140.71 448.711Q1138.97 450.447 1137.16 452.095Q1135.34 453.744 1133.44 455.301Q1131.54 456.859 1129.57 458.321Q1127.6 459.783 1125.56 461.147Q1123.52 462.511 1121.41 463.773Q1119.3 465.035 1117.14 466.192Q1114.97 467.349 1112.76 468.399Q1110.54 469.449 1108.27 470.388Q1106 471.327 1103.69 472.154Q1101.38 472.981 1099.03 473.694Q1096.68 474.407 1094.3 475.003Q1091.92 475.6 1089.51 476.079Q1087.1 476.557 1084.67 476.918Q1082.25 477.278 1079.8 477.518Q1077.36 477.759 1074.91 477.88Q1072.46 478 1070 478L7.999 478Q7.80264 478 7.60651 477.99Q7.41038 477.981 7.21496 477.961Q7.01954 477.942 6.8253 477.913Q6.63106 477.885 6.43847 477.846Q6.24588 477.808 6.0554 477.76Q5.86492 477.713 5.67701 477.656Q5.4891 477.599 5.30422 477.532Q5.11933 477.466 4.93791 477.391Q4.7565 477.316 4.57899 477.232Q4.40148 477.148 4.2283 477.055Q4.05512 476.963 3.88669 476.862Q3.71826 476.761 3.55499 476.652Q3.39172 476.543 3.234 476.426Q3.07628 476.309 2.92449 476.184Q2.7727 476.06 2.6272 475.928Q2.4817 475.796 2.34285 475.657Q2.204 475.518 2.07213 475.373Q1.94026 475.227 1.81569 475.076Q1.69112 474.924 1.57414 474.766Q1.45717 474.608 1.34807 474.445Q1.23898 474.282 1.13803 474.113Q1.03708 473.945 0.944512 473.772Q0.851946 473.598 0.76799 473.421Q0.684033 473.243 0.608888 473.062Q0.533742 472.881 0.467589 472.696Q0.401436 472.511 0.344434 472.323Q0.287433 472.135 0.23972 471.945Q0.192007 471.754 0.153699 471.561Q0.11539 471.369 0.0865771 471.175Q0.0577644 470.98 0.0385174 470.785Q0.0192703 470.59 0.00963514 470.393Q0 470.197 0 470.001L0 99.999Q0 97.5442 0.120453 95.0923Q0.240906 92.6404 0.481523 90.1974Q0.722139 87.7544 1.08234 85.3261Q1.44254 82.8978 1.92145 80.4902Q2.40037 78.0825 2.99684 75.7012Q3.59332 73.32 4.30592 70.9708Q5.01853 68.6217 5.84553 66.3103Q6.67254 63.999 7.61197 61.731Q8.5514 59.4631 9.60097 57.2439Q10.6506 55.0248 11.8078 52.8598Q12.965 50.6948 14.227 48.5892Q15.489 46.4837 16.8529 44.4425Q18.2167 42.4014 19.6791 40.4297Q21.1414 38.4579 22.6987 36.5603Q24.2561 34.6627 25.9046 32.8438Q27.5532 31.0249 29.289 29.289Q31.0249 27.5532 32.8438 25.9046Q34.6627 24.2561 36.5603 22.6987Q38.4579 21.1414 40.4297 19.679Q42.4014 18.2167 44.4425 16.8529Q46.4837 15.489 48.5892 14.227Q50.6948 12.965 52.8598 11.8078Q55.0248 10.6506 57.2439 9.60097Q59.4631 8.5514 61.731 7.61197Q63.999 6.67254 66.3103 5.84553Q68.6217 5.01853 70.9708 4.30592Q73.3199 3.59332 75.7012 2.99684Q78.0825 2.40037 80.4902 1.92145Q82.8978 1.44254 85.3261 1.08234Q87.7544 0.722139 90.1974 0.481523Q92.6404 0.240906 95.0923 0.120453Q97.5442 0 99.999 0L99.999 0Z" id="bg" fill="#F9FAFB" fill-rule="evenodd" stroke="none" />
  <g id="left-quote" transform="translate(553 78)">
    <path d="M20.251 24.0196C18.6926 23.5695 17.1342 23.3412 15.6183 23.3412C13.2774 23.3412 11.3241 23.8778 9.80948 24.5348C11.2696 19.1732 14.7774 9.92177 21.7649 8.87993C22.412 8.78341 22.9424 8.31408 23.1189 7.68232L24.6461 2.20351C24.7749 1.74017 24.6985 1.24422 24.435 0.842126C24.1715 0.440036 23.7481 0.171754 23.2735 0.106514C22.7578 0.0359485 22.2322 0 21.7112 0C13.3238 0 5.01748 8.78074 1.51241 21.3534C-0.545094 28.7295 -1.14841 39.8189 3.9197 46.7989C6.75574 50.7046 10.8933 52.7903 16.2176 52.9987C16.2395 52.9993 16.2608 53 16.2827 53C22.8521 53 28.6775 48.5624 30.4496 42.2095C31.5082 38.4116 31.0297 34.4286 29.1009 30.9916C27.1928 27.5931 24.0501 25.116 20.251 24.0196Z" transform="translate(0 0.071428575)" id="Path" fill="#0F1C49" fill-opacity="0.078431375" stroke="none" />
    <path d="M29.1007 30.9918C27.1925 27.5928 24.0498 25.1157 20.2507 24.0193C18.6922 23.5692 17.1338 23.3409 15.6185 23.3409C13.2776 23.3409 11.3236 23.8775 9.809 24.5345C11.2692 19.1729 14.777 9.92165 21.7653 8.87982C22.4124 8.78329 22.942 8.31397 23.1193 7.68222L24.6465 2.20348C24.7752 1.74015 24.6989 1.2442 24.4354 0.842115C24.1726 0.44003 23.7491 0.171752 23.2739 0.106513C22.7589 0.035948 22.2332 0 21.7115 0C13.3241 0 5.01761 8.78063 1.51183 21.3531C-0.545035 28.7291 -1.14836 39.8184 3.92048 46.7996C6.75589 50.7047 10.8942 52.791 16.2179 52.9987C16.2398 52.9993 16.261 53 16.2836 53C22.8524 53 28.6786 48.5624 30.4507 42.2096C31.508 38.4118 31.0288 34.4282 29.1007 30.9918Z" transform="translate(33 0.071428575)" id="Path" fill="#0F1C49" fill-opacity="0.078431375" stroke="none" />
  </g>
</svg>